<svg width="256" height="125" viewBox="0 0 256 125" fill="none" xmlns="http://www.w3.org/2000/svg">
<rect width="256" height="113" rx="10" fill="#BCB4E5"/>
<g clip-path="url(#clip0)">
<path d="M90.132 61.7314C93.0143 61.7314 95.3509 59.3915 95.3509 56.5052C95.3509 53.6188 93.0143 51.279 90.132 51.279C87.2497 51.279 84.9131 53.6188 84.9131 56.5052C84.9131 59.3915 87.2497 61.7314 90.132 61.7314Z" fill="#5843BD"/>
<path d="M90.6967 46.0358C93.579 46.0358 95.9156 43.696 95.9156 40.8096C95.9156 37.9233 93.579 35.5834 90.6967 35.5834C87.8144 35.5834 85.4778 37.9233 85.4778 40.8096C85.4778 43.696 87.8144 46.0358 90.6967 46.0358Z" fill="#5E5DA9"/>
<path d="M77.7512 49.65C80.6117 49.65 82.9306 47.3279 82.9306 44.4634C82.9306 41.5989 80.6117 39.2768 77.7512 39.2768C74.8907 39.2768 72.5718 41.5989 72.5718 44.4634C72.5718 47.3279 74.8907 49.65 77.7512 49.65Z" fill="#5843BD"/>
<path d="M80.8069 44.141C83.502 44.141 85.6869 41.9531 85.6869 39.2542C85.6869 36.5553 83.502 34.3674 80.8069 34.3674C78.1117 34.3674 75.9269 36.5553 75.9269 39.2542C75.9269 41.9531 78.1117 44.141 80.8069 44.141Z" fill="#5E5DA9"/>
<path d="M86.1387 38.7282L90.2505 35.7078C89.4894 34.6622 88.3636 33.9413 87.0965 33.688C85.8294 33.4346 84.5135 33.6675 83.4097 34.3402C82.306 35.013 81.4951 36.0766 81.1378 37.32C80.7805 38.5635 80.9029 39.896 81.4807 41.0533C82.0586 42.2107 83.0497 43.1083 84.2574 43.5681C85.4652 44.0279 86.8014 44.0164 88.0011 43.5358C89.2008 43.0553 90.1763 42.1408 90.7342 40.9737C91.2921 39.8066 91.3916 38.4721 91.013 37.235L86.1387 38.7282Z" fill="#5E5DA9"/>
<path d="M67.3417 61.8332L98.1806 66.4089C103.592 67.1442 109.505 71.7652 109.827 77.2233L108.556 109.463L49.8889 110.102L54.7802 73.1906C55.1877 70.1127 56.675 67.2803 58.9762 65.1996C61.2774 63.119 64.2426 61.9257 67.3417 61.8332V61.8332Z" fill="#FEF5C0"/>
<path d="M55 113H105L104.649 106.825L55 105V113Z" fill="#5843BD"/>
<path d="M92.6284 46.1037C92.5107 44.024 91.6747 42.05 90.2637 40.5195C88.8527 38.989 86.9544 37.9972 84.8936 37.7138C82.8329 37.4305 80.7378 37.8732 78.9671 38.9662C77.1964 40.0592 75.8601 41.7346 75.1869 43.7055C74.8806 44.32 74.5432 44.9184 74.1759 45.4985C72.9251 46.8059 72.0723 48.4432 71.7175 50.2186C71.3627 51.994 71.5205 53.8339 72.1726 55.5227C72.8246 57.2114 73.9438 58.6791 75.399 59.7537C76.8542 60.8283 78.5851 61.4652 80.3889 61.59V61.59C81.6365 61.68 82.8896 61.5226 84.0764 61.1267C85.2631 60.7308 86.3602 60.1043 87.3047 59.283C88.2492 58.4617 89.0225 57.4619 89.5804 56.3407C90.1382 55.2196 90.4696 53.9992 90.5556 52.7495V52.7495C90.5556 52.6251 90.5556 52.5063 90.5556 52.3819C92.0202 50.6301 92.7616 48.3845 92.6284 46.1037V46.1037Z" fill="#FFE0CA"/>
<path d="M78.734 46.4374C79.0303 46.4374 79.2705 46.1968 79.2705 45.9001C79.2705 45.6033 79.0303 45.3627 78.734 45.3627C78.4376 45.3627 78.1974 45.6033 78.1974 45.9001C78.1974 46.1968 78.4376 46.4374 78.734 46.4374Z" fill="#171717"/>
<path d="M75.0119 46.0641C75.3082 46.0641 75.5484 45.8235 75.5484 45.5268C75.5484 45.23 75.3082 44.9894 75.0119 44.9894C74.7155 44.9894 74.4753 45.23 74.4753 45.5268C74.4753 45.8235 74.7155 46.0641 75.0119 46.0641Z" fill="#171717"/>
<path d="M110.522 89.0331V88.7164C108.952 88.7843 107.387 88.8861 105.828 89.0331H110.522Z" fill="#D36462"/>
<path d="M98.7792 90.4132C98.9035 94.8193 98.7792 99.1914 98.9148 103.603C99.1294 111.324 111.137 111.358 110.923 103.603C110.799 99.1914 110.676 94.7816 110.556 90.3736L98.7792 90.4132Z" fill="#FFE0CA"/>
<path d="M49.7646 90.4528C49.0643 95.8544 48.4882 99.7174 47.7934 105.119C46.5734 114.576 58.4402 116.431 59.6545 106.923C60.3493 101.527 60.9988 96.4143 61.6935 91.0184L49.7646 90.4528Z" fill="#FFE0CA"/>
<path d="M82.0099 49.8989C82.5745 49.8989 83.0322 49.4405 83.0322 48.8752C83.0322 48.3098 82.5745 47.8514 82.0099 47.8514C81.4453 47.8514 80.9875 48.3098 80.9875 48.8752C80.9875 49.4405 81.4453 49.8989 82.0099 49.8989Z" fill="white"/>
<path d="M82.0833 58.6997H83.3937C83.7997 58.6997 84.189 58.8612 84.476 59.1487C84.7631 59.4361 84.9243 59.826 84.9243 60.2325V69.4292C84.9243 70.0098 84.6941 70.5665 84.2841 70.977C83.8742 71.3875 83.3182 71.6181 82.7385 71.6181V71.6181C82.1588 71.6181 81.6028 71.3875 81.1929 70.977C80.783 70.5665 80.5527 70.0098 80.5527 69.4292V60.2325C80.5527 60.0312 80.5923 59.8319 80.6692 59.6459C80.7461 59.46 80.8589 59.291 81.001 59.1487C81.1431 59.0063 81.3119 58.8934 81.4976 58.8164C81.6833 58.7394 81.8823 58.6997 82.0833 58.6997V58.6997Z" fill="#FFE0CA"/>
<path d="M93.967 58.1341C96.6778 58.1341 98.8753 55.9335 98.8753 53.219C98.8753 50.5045 96.6778 48.3039 93.967 48.3039C91.2563 48.3039 89.0588 50.5045 89.0588 53.219C89.0588 55.9335 91.2563 58.1341 93.967 58.1341Z" fill="#5843BD"/>
<path d="M94.786 52.167C97.4967 52.167 99.6942 49.9664 99.6942 47.2519C99.6942 44.5373 97.4967 42.3368 94.786 42.3368C92.0752 42.3368 89.8777 44.5373 89.8777 47.2519C89.8777 49.9664 92.0752 52.167 94.786 52.167Z" fill="#5E5DA9"/>
<path d="M92.6454 48.6829C92.2974 50.4413 92.0915 52.225 92.0297 54.0165C92.2176 54.0346 92.4067 54.0346 92.5945 54.0165C93.2459 53.9435 93.848 53.6342 94.2872 53.147C94.7264 52.6599 94.9724 52.0285 94.9786 51.3722C94.9849 50.7159 94.751 50.08 94.3212 49.5846C93.8913 49.0891 93.2952 48.7684 92.6454 48.6829V48.6829Z" fill="#E8716A"/>
<path d="M93.0464 52.4837C93.0987 52.3369 93.1817 52.203 93.2898 52.0908C93.3979 51.9787 93.5287 51.8909 93.6733 51.8333C93.8166 51.7874 93.9375 51.6892 94.0118 51.5582C94.0861 51.4272 94.1084 51.273 94.0743 51.1263C94.0554 51.0528 94.022 50.9839 93.9759 50.9236C93.9299 50.8634 93.8722 50.813 93.8063 50.7756C93.7405 50.7381 93.6677 50.7143 93.5925 50.7056C93.5172 50.6968 93.441 50.7033 93.3683 50.7247C93.0373 50.8444 92.7375 51.0373 92.4911 51.2889C92.2447 51.5406 92.058 51.8445 91.945 52.1783C91.925 52.2507 91.9194 52.3264 91.9285 52.4009C91.9377 52.4755 91.9615 52.5476 91.9984 52.613C92.0354 52.6783 92.0849 52.7358 92.144 52.782C92.2032 52.8283 92.2709 52.8624 92.3432 52.8825C92.4155 52.9025 92.491 52.9081 92.5655 52.8989C92.64 52.8897 92.7119 52.866 92.7772 52.8289C92.8425 52.7919 92.8999 52.7424 92.9461 52.6831C92.9923 52.6239 93.0263 52.5561 93.0464 52.4837V52.4837Z" fill="#171717"/>
<path d="M99.5418 47.5912C100.077 46.997 100.458 46.2806 100.652 45.5047C100.847 44.7288 100.849 43.917 100.657 43.1403C100.466 42.3635 100.088 41.6455 99.5559 41.0489C99.0237 40.4524 98.3537 39.9954 97.6044 39.718C97.8396 38.9813 97.8975 38.1993 97.7732 37.436C97.649 36.6726 97.3462 35.9495 96.8896 35.3257C96.4331 34.7019 95.8356 34.1951 95.1461 33.8467C94.4565 33.4983 93.6945 33.3182 92.9221 33.321C92.5025 33.3208 92.0848 33.3759 91.6795 33.485C91.2483 32.9383 90.7057 32.4899 90.0878 32.1696C89.47 31.8494 88.7911 31.6646 88.0963 31.6277C87.4016 31.5908 86.707 31.7025 86.0588 31.9555C85.4105 32.2084 84.8235 32.5968 84.3369 33.0947C83.8479 32.508 83.2162 32.0572 82.5027 31.7858C81.7893 31.5144 81.018 31.4315 80.2633 31.5452C79.5086 31.6588 78.7958 31.9652 78.1936 32.4347C77.5913 32.9042 77.12 33.5211 76.8249 34.2259C75.7414 34.2215 74.6937 34.6134 73.8785 35.3282C73.0633 36.0429 72.5369 37.0312 72.3981 38.1072C72.2594 39.1833 72.5179 40.273 73.125 41.1717C73.7322 42.0703 74.6462 42.7159 75.6953 42.9872C76.5094 43.7249 77.5682 44.1333 78.6662 44.1333C79.7642 44.1333 80.823 43.7249 81.6371 42.9872C82.0107 43.5306 82.5007 43.9837 83.0713 44.3135C83.642 44.6432 84.2789 44.8413 84.9357 44.8933C85.3022 45.7611 85.9301 46.4927 86.7318 46.986C86.2294 47.8346 85.9465 48.7953 85.9087 49.7811C85.8708 50.7669 86.0793 51.7465 86.5151 52.6312C86.951 53.5159 87.6004 54.2777 88.4046 54.8475C89.2088 55.4173 90.1422 55.7771 91.1204 55.8943C92.2424 56.9012 93.7053 57.4423 95.2116 57.4074C96.7179 57.3725 98.1543 56.7642 99.2286 55.7064C100.303 54.6486 100.934 53.2207 100.995 51.7131C101.055 50.2056 100.539 48.7317 99.5531 47.5912H99.5418Z" fill="#5843BD"/>
<path d="M76.7176 48.4566C77.1541 48.491 77.5921 48.411 77.9884 48.2247C78.1195 48.1497 78.2154 48.0256 78.2552 47.8798C78.2949 47.7339 78.2751 47.5783 78.2002 47.447C78.1253 47.3157 78.0014 47.2197 77.8558 47.1799C77.7101 47.1401 77.5547 47.1599 77.4236 47.2349C77.2021 47.3185 76.9629 47.3438 76.7289 47.3084C76.5791 47.3084 76.4354 47.368 76.3295 47.4741C76.2236 47.5802 76.1641 47.724 76.1641 47.874C76.1641 48.024 76.2236 48.1679 76.3295 48.274C76.4354 48.38 76.5791 48.4396 76.7289 48.4396L76.7176 48.4566Z" fill="#171717"/>
<path d="M61.75 91.0863L61.671 91.075L64.2635 75.3116L64.3425 75.3229L61.75 91.0863Z" fill="#343434"/>
<path d="M98.4969 90.4019L98.6437 90.3341C98.6437 90.2096 98.5872 89.3499 98.4969 88.2696C98.2709 85.4416 97.8869 80.7074 97.9716 77.8681H98.0507C97.9603 80.6961 98.3444 85.4359 98.5759 88.2639C98.6945 89.7345 98.7284 90.1813 98.7228 90.3227H100.536C101.954 90.3227 103.286 90.3227 105.619 90.2379V90.3114C103.309 90.3906 101.976 90.3906 100.564 90.3963H98.7002L98.4969 90.4019Z" fill="#343434"/>
<path d="M111.454 108.021C112.583 100.068 114.101 92.193 116.006 84.3952L111.81 88.5976C116.113 87.6418 121.784 85.6112 125.585 83.3771C133.775 78.5694 128.042 74.893 120.502 76.5898C116.198 77.54 112.922 76.0242 108.641 77.0027C107.636 77.2717 106.719 77.8012 105.983 78.538C105.247 79.2748 104.719 80.1928 104.45 81.1995C102.545 89.0049 101.027 96.88 99.8976 104.825C99.4345 108.066 100.694 111.244 104.089 112.223C106.913 113.032 111.019 111.233 111.476 108.021H111.454Z" fill="#FFE0CA"/>
<path d="M61.7105 91.041H52.4305V91.1202H61.7105V91.041Z" fill="#343434"/>
<path d="M40.3887 84.4291C41.2303 84.5253 42.0832 84.6384 42.9134 84.7628L41.7838 83.7504C42.5407 85.385 42.84 87.4381 43.3032 89.1802C44.9976 95.6677 46.3701 102.24 47.4319 108.863C47.9516 112.093 51.9505 113.824 54.8197 113.066C58.2086 112.161 59.5246 108.858 59.0106 105.668C57.6212 97.0082 56.4069 88.8974 53.0801 80.7244C49.7533 72.5514 40.6542 74.6555 33.2777 73.7279C30.0357 73.315 26.4378 73.5355 26.1836 76.4824C26.082 77.6588 26.7484 79.5592 29.2901 81.1147C29.2732 81.1147 37.3048 84.0332 40.3887 84.4291Z" fill="#FFE0CA"/>
<path d="M77.4688 63.4565L76.8475 68.3489C76.673 69.7305 77.0537 71.1249 77.9058 72.2254C78.758 73.3259 80.0118 74.0423 81.3914 74.2171C82.7711 74.3919 84.1635 74.0106 85.2625 73.1573C86.3614 72.3039 87.0769 71.0484 87.2514 69.6668L87.867 64.7743L77.4688 63.4565Z" fill="#FFE0CA"/>
<path d="M80.5301 61.6126L84.9187 65.4926L84.9808 60.7642L80.5301 61.6126Z" fill="#171717"/>
<path d="M68.9966 99.8814C66.9145 97.9145 65.3755 95.442 64.5289 92.7039H64.6023C65.4432 95.4308 66.9769 97.8924 69.053 99.8475L68.9966 99.8814Z" fill="#343434"/>
<path d="M69.1604 102.924C66.8602 102.749 64.7178 101.687 63.1846 99.9607L63.2411 99.9098C64.7619 101.62 66.8859 102.672 69.166 102.845L69.1604 102.924Z" fill="#343434"/>
<path d="M96.8815 88.4845C95.6613 86.1915 95.0067 83.6393 94.9725 81.0412H95.0741C95.1044 83.6258 95.7553 86.1652 96.9719 88.4449L96.8815 88.4845Z" fill="#343434"/>
<path d="M47.9347 84.1859H41.4167V84.2651H47.9347V84.1859Z" fill="#343434"/>
<path d="M112.928 87.7096C111.769 87.7088 110.614 87.5817 109.482 87.3307V87.2571C111.524 87.7124 113.636 87.7567 115.695 87.3872V87.4608C114.782 87.6247 113.856 87.7079 112.928 87.7096Z" fill="#343434"/>
<path d="M138 60.8434H119.197V60.9452H138V60.8434Z" fill="#343434"/>
<path d="M122.75 53.2077H109.929V53.3095H122.75V53.2077Z" fill="#343434"/>
<path d="M65.5625 18.4229H47.8725V18.5248H65.5625V18.4229Z" fill="#343434"/>
<path d="M44.8056 29.4522H27.9402V29.5541H44.8056V29.4522Z" fill="#343434"/>
<path d="M123.597 32.2407C122.917 32.2407 122.252 32.0387 121.686 31.6602C121.121 31.2817 120.68 30.7437 120.419 30.1143C120.159 29.4849 120.091 28.7923 120.224 28.1242C120.356 27.456 120.684 26.8422 121.165 26.3605C121.646 25.8788 122.259 25.5507 122.926 25.4178C123.593 25.2849 124.285 25.3531 124.914 25.6138C125.542 25.8745 126.079 26.316 126.457 26.8825C126.835 27.4489 127.037 28.1149 127.037 28.7962C127.037 29.7097 126.675 30.5858 126.029 31.2318C125.384 31.8778 124.509 32.2407 123.597 32.2407V32.2407ZM123.597 25.4534C122.937 25.4534 122.292 25.6495 121.743 26.0168C121.194 26.3841 120.766 26.9062 120.513 27.517C120.261 28.1278 120.194 28.7999 120.323 29.4483C120.452 30.0967 120.77 30.6923 121.237 31.1598C121.704 31.6273 122.298 31.9457 122.946 32.0747C123.593 32.2036 124.265 32.1374 124.875 31.8844C125.485 31.6314 126.006 31.203 126.373 30.6533C126.739 30.1036 126.935 29.4573 126.935 28.7962C126.934 27.9101 126.582 27.0607 125.956 26.4341C125.33 25.8076 124.482 25.4549 123.597 25.4534V25.4534Z" fill="#343434"/>
<path d="M40.3605 48.6432C40.0564 48.6444 39.7588 48.5551 39.5054 48.3867C39.252 48.2184 39.0543 47.9785 38.9371 47.6975C38.82 47.4165 38.7887 47.107 38.8474 46.8082C38.906 46.5094 39.0519 46.2347 39.2665 46.019C39.4811 45.8033 39.7549 45.6562 40.053 45.5964C40.3512 45.5365 40.6604 45.5667 40.9414 45.6829C41.2225 45.7992 41.4628 45.9964 41.6318 46.2495C41.8009 46.5026 41.8911 46.8003 41.8911 47.1048C41.8911 47.5118 41.73 47.9023 41.4432 48.1907C41.1563 48.479 40.767 48.6418 40.3605 48.6432V48.6432ZM40.3605 45.6738C40.0763 45.6727 39.7981 45.7562 39.5613 45.9136C39.3245 46.071 39.1398 46.2953 39.0305 46.5581C38.9212 46.8208 38.8923 47.1101 38.9475 47.3893C39.0027 47.6685 39.1394 47.925 39.3404 48.1263C39.5414 48.3276 39.7975 48.4645 40.0763 48.5198C40.3552 48.575 40.6441 48.5461 40.9065 48.4366C41.1688 48.3272 41.3928 48.1422 41.55 47.9051C41.7072 47.668 41.7906 47.3894 41.7895 47.1048C41.788 46.7257 41.6369 46.3626 41.3693 46.0946C41.1016 45.8266 40.739 45.6753 40.3605 45.6738Z" fill="#343434"/>
<path d="M57.7285 53.3095C57.4244 53.3106 57.1269 53.2214 56.8735 53.053C56.6201 52.8846 56.4223 52.6448 56.3052 52.3637C56.188 52.0827 56.1568 51.7732 56.2154 51.4744C56.2741 51.1756 56.4199 50.901 56.6346 50.6852C56.8492 50.4695 57.1229 50.3224 57.4211 50.2626C57.7192 50.2028 58.0284 50.2329 58.3095 50.3492C58.5905 50.4655 58.8308 50.6627 58.9999 50.9158C59.1689 51.1689 59.2592 51.4666 59.2592 51.7711C59.2592 52.1781 59.0981 52.5686 58.8112 52.8569C58.5243 53.1453 58.135 53.308 57.7285 53.3095ZM57.7285 50.3401C57.4443 50.339 57.1662 50.4224 56.9294 50.5798C56.6926 50.7373 56.5078 50.9616 56.3985 51.2243C56.2893 51.4871 56.2604 51.7764 56.3156 52.0556C56.3707 52.3348 56.5075 52.5913 56.7085 52.7926C56.9094 52.9938 57.1656 53.1308 57.4444 53.186C57.7232 53.2413 58.0121 53.2123 58.2745 53.1029C58.5369 52.9935 58.7609 52.8085 58.9181 52.5713C59.0753 52.3342 59.1586 52.0557 59.1575 51.7711C59.156 51.392 59.005 51.0289 58.7373 50.7609C58.4697 50.4928 58.1071 50.3416 57.7285 50.3401V50.3401Z" fill="#343434"/>
<path d="M94.7917 8.34385C94.3627 8.34385 93.9434 8.21647 93.5867 7.97782C93.2301 7.73916 92.9521 7.39995 92.7879 7.00309C92.6237 6.60622 92.5808 6.16952 92.6645 5.7482C92.7482 5.32689 92.9547 4.93989 93.2581 4.63614C93.5614 4.33239 93.9478 4.12554 94.3686 4.04173C94.7893 3.95793 95.2254 4.00094 95.6217 4.16533C96.018 4.32972 96.3567 4.6081 96.5951 4.96527C96.8334 5.32244 96.9606 5.74236 96.9606 6.17193C96.9606 6.74796 96.7321 7.30039 96.3253 7.70771C95.9186 8.11502 95.3669 8.34385 94.7917 8.34385ZM94.7917 4.10181C94.3828 4.10181 93.9832 4.22322 93.6432 4.45069C93.3033 4.67815 93.0383 5.00146 92.8818 5.37973C92.7254 5.75799 92.6844 6.17422 92.7642 6.57579C92.844 6.97735 93.0408 7.34621 93.3299 7.63572C93.6191 7.92523 93.9874 8.12239 94.3884 8.20227C94.7894 8.28214 95.205 8.24115 95.5828 8.08446C95.9605 7.92778 96.2834 7.66245 96.5105 7.32202C96.7377 6.98159 96.8589 6.58136 96.8589 6.17193C96.8589 5.6229 96.6411 5.09636 96.2534 4.70813C95.8658 4.31991 95.34 4.10181 94.7917 4.10181V4.10181Z" fill="#343434"/>
<path d="M46.9236 60.521C46.3271 60.521 45.7439 60.3438 45.2479 60.012C44.7519 59.6801 44.3653 59.2084 44.1371 58.6565C43.9088 58.1046 43.849 57.4973 43.9654 56.9114C44.0818 56.3255 44.3691 55.7874 44.7909 55.365C45.2127 54.9425 45.7501 54.6549 46.3352 54.5384C46.9202 54.4218 47.5267 54.4816 48.0778 54.7102C48.6289 54.9388 49.1 55.3259 49.4314 55.8226C49.7628 56.3193 49.9397 56.9033 49.9397 57.5006C49.9382 58.3012 49.62 59.0686 49.0546 59.6347C48.4893 60.2008 47.723 60.5195 46.9236 60.521V60.521ZM46.9236 54.5821C46.3472 54.5821 45.7837 54.7533 45.3044 55.074C44.8251 55.3947 44.4516 55.8505 44.231 56.3838C44.0104 56.9171 43.9527 57.5039 44.0651 58.07C44.1776 58.6362 44.4552 59.1562 44.8628 59.5644C45.2704 59.9725 45.7897 60.2505 46.355 60.3631C46.9204 60.4757 47.5063 60.4179 48.0389 60.197C48.5714 59.9761 49.0266 59.602 49.3469 59.1221C49.6671 58.6421 49.838 58.0779 49.838 57.5006C49.838 56.7266 49.531 55.9843 48.9844 55.4369C48.4378 54.8896 47.6965 54.5821 46.9236 54.5821V54.5821Z" fill="#343434"/>
<path d="M131.431 74.4745L131.358 74.4009L136.272 69.4858L136.339 69.5537L131.431 74.4745Z" fill="#343434"/>
<path d="M137.435 79.0841H131.397V79.1859H137.435V79.0841Z" fill="#343434"/>
<path d="M136.565 87.0988L131.2 83.9879L131.245 83.8974L136.611 87.0083L136.565 87.0988Z" fill="#343434"/>
<path d="M21.795 71.4372L18.2253 67.8569L18.2931 67.789L21.8684 71.3636L21.795 71.4372Z" fill="#343434"/>
<path d="M18.0107 81.1486L17.9429 81.0807L21.6142 77.4043L21.682 77.4722L18.0107 81.1486Z" fill="#343434"/>
<path d="M20.5298 73.9937H16V74.0955H20.5298V73.9937Z" fill="#343434"/>
<path d="M83.8918 40.4329C84.0676 40.0635 83.9111 39.6213 83.5422 39.4453C83.1733 39.2693 82.7318 39.426 82.556 39.7954L80.962 43.1449C80.7862 43.5143 80.9428 43.9565 81.3116 44.1325C81.6805 44.3086 82.1221 44.1518 82.2979 43.7824L83.8918 40.4329Z" fill="#2B2C2B"/>
<path d="M43.8171 22.5745C44.207 22.5745 44.5231 22.2579 44.5231 21.8675C44.5231 21.477 44.207 21.1605 43.8171 21.1605C43.4272 21.1605 43.1111 21.477 43.1111 21.8675C43.1111 22.2579 43.4272 22.5745 43.8171 22.5745Z" fill="#2E4993"/>
<path d="M108.771 43.7847C109.161 43.7847 109.477 43.4681 109.477 43.0777C109.477 42.6872 109.161 42.3707 108.771 42.3707C108.381 42.3707 108.065 42.6872 108.065 43.0777C108.065 43.4681 108.381 43.7847 108.771 43.7847Z" fill="#2E4993"/>
</g>
<path d="M164.221 26.5283C164.114 27.666 163.694 28.5547 162.961 29.1943C162.229 29.8291 161.255 30.1465 160.039 30.1465C159.189 30.1465 158.44 29.9463 157.791 29.5459C157.146 29.1406 156.648 28.5669 156.296 27.8247C155.945 27.0825 155.762 26.2207 155.747 25.2393V24.2432C155.747 23.2373 155.925 22.3511 156.282 21.5845C156.638 20.8179 157.148 20.2271 157.812 19.812C158.481 19.397 159.253 19.1895 160.127 19.1895C161.304 19.1895 162.251 19.5093 162.969 20.1489C163.687 20.7886 164.104 21.6919 164.221 22.8589H162.375C162.288 22.0923 162.063 21.5405 161.702 21.2036C161.345 20.8618 160.82 20.6909 160.127 20.6909C159.321 20.6909 158.701 20.9863 158.267 21.5771C157.837 22.1631 157.617 23.0249 157.607 24.1626V25.1074C157.607 26.2598 157.812 27.1387 158.223 27.7441C158.638 28.3496 159.243 28.6523 160.039 28.6523C160.767 28.6523 161.313 28.4888 161.68 28.1616C162.046 27.8345 162.278 27.29 162.375 26.5283H164.221ZM170.011 23.7012C169.776 23.6621 169.535 23.6426 169.286 23.6426C168.47 23.6426 167.921 23.9551 167.638 24.5801V30H165.858V22.0752H167.557L167.601 22.9614C168.031 22.2729 168.627 21.9287 169.388 21.9287C169.642 21.9287 169.852 21.9629 170.018 22.0312L170.011 23.7012ZM174.629 30.1465C173.501 30.1465 172.585 29.7925 171.882 29.0845C171.184 28.3716 170.835 27.4243 170.835 26.2427V26.0229C170.835 25.2319 170.986 24.5264 171.289 23.9062C171.596 23.2812 172.026 22.7954 172.578 22.4487C173.13 22.1021 173.745 21.9287 174.424 21.9287C175.503 21.9287 176.335 22.2729 176.921 22.9614C177.512 23.6499 177.807 24.624 177.807 25.8838V26.6016H172.629C172.683 27.2559 172.9 27.7734 173.281 28.1543C173.667 28.5352 174.15 28.7256 174.731 28.7256C175.547 28.7256 176.211 28.396 176.723 27.7368L177.683 28.6523C177.365 29.126 176.941 29.4946 176.408 29.7583C175.881 30.0171 175.288 30.1465 174.629 30.1465ZM174.416 23.3569C173.928 23.3569 173.532 23.5278 173.23 23.8696C172.932 24.2114 172.741 24.6875 172.658 25.2979H176.05V25.166C176.01 24.5703 175.852 24.1211 175.573 23.8184C175.295 23.5107 174.909 23.3569 174.416 23.3569ZM184.08 30C184.002 29.8486 183.934 29.6021 183.875 29.2603C183.309 29.8511 182.616 30.1465 181.795 30.1465C180.999 30.1465 180.35 29.9194 179.847 29.4653C179.344 29.0112 179.093 28.4497 179.093 27.7808C179.093 26.936 179.405 26.2891 180.03 25.8398C180.66 25.3857 181.558 25.1587 182.725 25.1587H183.817V24.6387C183.817 24.2285 183.702 23.9014 183.472 23.6572C183.243 23.4082 182.894 23.2837 182.425 23.2837C182.02 23.2837 181.688 23.3862 181.429 23.5913C181.17 23.7915 181.041 24.0479 181.041 24.3604H179.261C179.261 23.9258 179.405 23.5205 179.693 23.1445C179.981 22.7637 180.372 22.4658 180.865 22.251C181.363 22.0361 181.917 21.9287 182.528 21.9287C183.455 21.9287 184.195 22.1631 184.747 22.6318C185.299 23.0957 185.582 23.75 185.596 24.5947V28.1689C185.596 28.8818 185.697 29.4507 185.897 29.8755V30H184.08ZM182.125 28.7183C182.476 28.7183 182.806 28.6328 183.114 28.4619C183.426 28.291 183.66 28.0615 183.817 27.7734V26.2793H182.857C182.198 26.2793 181.702 26.394 181.37 26.6235C181.038 26.853 180.872 27.1777 180.872 27.5977C180.872 27.9395 180.985 28.2129 181.209 28.418C181.439 28.6182 181.744 28.7183 182.125 28.7183ZM189.841 20.1489V22.0752H191.24V23.3936H189.841V27.8174C189.841 28.1201 189.899 28.3398 190.017 28.4766C190.139 28.6084 190.353 28.6743 190.661 28.6743C190.866 28.6743 191.074 28.6499 191.284 28.6011V29.978C190.878 30.0903 190.488 30.1465 190.112 30.1465C188.745 30.1465 188.061 29.3921 188.061 27.8833V23.3936H186.757V22.0752H188.061V20.1489H189.841ZM196.246 30.1465C195.118 30.1465 194.202 29.7925 193.499 29.0845C192.801 28.3716 192.452 27.4243 192.452 26.2427V26.0229C192.452 25.2319 192.603 24.5264 192.906 23.9062C193.213 23.2812 193.643 22.7954 194.195 22.4487C194.747 22.1021 195.362 21.9287 196.041 21.9287C197.12 21.9287 197.952 22.2729 198.538 22.9614C199.129 23.6499 199.424 24.624 199.424 25.8838V26.6016H194.246C194.3 27.2559 194.517 27.7734 194.898 28.1543C195.284 28.5352 195.767 28.7256 196.348 28.7256C197.164 28.7256 197.828 28.396 198.34 27.7368L199.3 28.6523C198.982 29.126 198.558 29.4946 198.025 29.7583C197.498 30.0171 196.905 30.1465 196.246 30.1465ZM196.033 23.3569C195.545 23.3569 195.149 23.5278 194.847 23.8696C194.549 24.2114 194.358 24.6875 194.275 25.2979H197.667V25.166C197.627 24.5703 197.469 24.1211 197.19 23.8184C196.912 23.5107 196.526 23.3569 196.033 23.3569ZM213.479 30H211.626L206.873 22.4341V30H205.02V19.3359H206.873L211.641 26.9312V19.3359H213.479V30ZM215.314 25.9644C215.314 25.188 215.468 24.4897 215.775 23.8696C216.083 23.2446 216.515 22.7661 217.072 22.4341C217.628 22.0972 218.268 21.9287 218.991 21.9287C220.06 21.9287 220.927 22.2729 221.591 22.9614C222.26 23.6499 222.621 24.563 222.675 25.7007L222.682 26.1182C222.682 26.8994 222.531 27.5977 222.228 28.2129C221.93 28.8281 221.5 29.3042 220.939 29.6411C220.382 29.978 219.738 30.1465 219.005 30.1465C217.887 30.1465 216.991 29.7754 216.317 29.0332C215.648 28.2861 215.314 27.2925 215.314 26.0522V25.9644ZM217.094 26.1182C217.094 26.9336 217.262 27.5732 217.599 28.0371C217.936 28.4961 218.405 28.7256 219.005 28.7256C219.606 28.7256 220.072 28.4912 220.404 28.0225C220.741 27.5537 220.909 26.8677 220.909 25.9644C220.909 25.1636 220.736 24.5288 220.389 24.0601C220.048 23.5913 219.581 23.3569 218.991 23.3569C218.409 23.3569 217.948 23.5889 217.606 24.0527C217.264 24.5117 217.094 25.2002 217.094 26.1182ZM226.567 20.1489V22.0752H227.966V23.3936H226.567V27.8174C226.567 28.1201 226.626 28.3398 226.743 28.4766C226.865 28.6084 227.08 28.6743 227.388 28.6743C227.593 28.6743 227.8 28.6499 228.01 28.6011V29.978C227.605 30.0903 227.214 30.1465 226.838 30.1465C225.471 30.1465 224.787 29.3921 224.787 27.8833V23.3936H223.484V22.0752H224.787V20.1489H226.567ZM232.972 30.1465C231.844 30.1465 230.929 29.7925 230.226 29.0845C229.527 28.3716 229.178 27.4243 229.178 26.2427V26.0229C229.178 25.2319 229.33 24.5264 229.632 23.9062C229.94 23.2812 230.37 22.7954 230.921 22.4487C231.473 22.1021 232.088 21.9287 232.767 21.9287C233.846 21.9287 234.679 22.2729 235.265 22.9614C235.855 23.6499 236.151 24.624 236.151 25.8838V26.6016H230.973C231.026 27.2559 231.244 27.7734 231.625 28.1543C232.01 28.5352 232.494 28.7256 233.075 28.7256C233.89 28.7256 234.554 28.396 235.067 27.7368L236.026 28.6523C235.709 29.126 235.284 29.4946 234.752 29.7583C234.225 30.0171 233.631 30.1465 232.972 30.1465ZM232.76 23.3569C232.271 23.3569 231.876 23.5278 231.573 23.8696C231.275 24.2114 231.085 24.6875 231.002 25.2979H234.393V25.166C234.354 24.5703 234.195 24.1211 233.917 23.8184C233.639 23.5107 233.253 23.3569 232.76 23.3569Z" fill="black"/>
<path d="M227 43.25C221.624 43.25 217.25 47.6239 217.25 53C217.25 58.3761 221.624 62.75 227 62.75C232.376 62.75 236.75 58.3761 236.75 53C236.75 47.6239 232.376 43.25 227 43.25ZM230.75 53.75H227.75V56.75C227.75 56.9489 227.671 57.1397 227.53 57.2803C227.39 57.421 227.199 57.5 227 57.5C226.801 57.5 226.61 57.421 226.47 57.2803C226.329 57.1397 226.25 56.9489 226.25 56.75V53.75H223.25C223.051 53.75 222.86 53.671 222.72 53.5303C222.579 53.3897 222.5 53.1989 222.5 53C222.5 52.8011 222.579 52.6103 222.72 52.4697C222.86 52.329 223.051 52.25 223.25 52.25H226.25V49.25C226.25 49.0511 226.329 48.8603 226.47 48.7197C226.61 48.579 226.801 48.5 227 48.5C227.199 48.5 227.39 48.579 227.53 48.7197C227.671 48.8603 227.75 49.0511 227.75 49.25V52.25H230.75C230.949 52.25 231.14 52.329 231.28 52.4697C231.421 52.6103 231.5 52.8011 231.5 53C231.5 53.1989 231.421 53.3897 231.28 53.5303C231.14 53.671 230.949 53.75 230.75 53.75Z" fill="#FEF5C0"/>
<defs>
<clipPath id="clip0">
<rect x="16" y="4" width="122" height="121" fill="white"/>
</clipPath>
</defs>
</svg>
