<svg width="176" height="160" viewBox="0 0 176 160" fill="none" xmlns="http://www.w3.org/2000/svg">
<rect width="176" height="160" rx="10" fill="#FEF5C0"/>
<g clip-path="url(#clip0)">
<path d="M81.7804 102.581C82.3963 79.2532 86.8488 56.186 94.9589 34.3064C96.4054 30.416 98.0062 26.5151 100.692 23.3219C103.378 20.1288 107.34 17.8191 111.483 18.0639C118.37 18.4683 122.864 25.3336 125.703 31.6241C135.207 52.6936 139.041 75.7961 142.78 98.6218" stroke="#343434" stroke-width="0.18" stroke-miterlimit="10"/>
<path d="M37.7563 113.752H163" stroke="#343434" stroke-width="0.18" stroke-miterlimit="10"/>
<path d="M13.0266 114.55C20.2221 109.691 25.6148 89.5852 29.2258 81.6927C29.981 80.0483 30.8745 78.3932 32.3264 77.3235C33.7782 76.2537 35.9268 75.9291 37.3627 77.0148C38.4263 77.8397 38.9103 79.2393 39.2932 80.5539C42.2005 90.4881 44.6575 100.539 46.6642 110.708" stroke="#343434" stroke-width="0.18" stroke-miterlimit="10"/>
<path d="M73.5691 57.1853C74.2977 59.2715 75.7282 59.7185 76.4568 61.8047C77.1163 63.6993 76.6164 66.2006 77.8981 67.7812C80.7274 71.2724 85.5616 66.1368 88.0027 64.4125C90.9755 62.3209 89.0663 58.1858 86.0509 60.288C85.2212 60.8734 82.6791 62.8319 81.8495 63.4173L80.7859 64.1677C79.9456 64.6679 79.8179 64.7956 80.3976 64.5402L82.4451 65.2427C82.8865 65.6046 82.0569 64.1304 81.9133 63.71L80.8497 60.586L79.0149 55.312C77.8183 51.8847 72.2767 53.1832 73.4786 56.6159L73.5691 57.1853Z" fill="#FFE0CA"/>
<path d="M65.6821 69.2341L60.7734 87.2222C59.997 90.0588 59.2418 92.8954 58.4494 95.7373C58.3483 96.1258 58.2367 96.5143 58.1197 96.9028L58.4973 96.2003C57.9282 96.2961 57.3592 96.4557 56.7901 96.5728C55.1946 96.9134 53.5566 97.2327 51.9346 97.5467C46.6164 98.5845 48.8607 106.727 54.1789 105.695C57.3219 105.077 61.4701 104.902 63.9856 102.704C66.5012 100.506 66.9692 96.5941 67.8201 93.4861L73.8243 71.4959C75.2549 66.2432 67.1181 64.0027 65.6821 69.2501V69.2341Z" fill="#D7D2E9"/>
<path d="M49.9509 97.8874C44.771 98.8559 38.2508 100.117 33.0496 100.884C30.7681 101.219 30.2044 105.514 30.3905 105.524C39.0645 106.126 47.0046 107.036 52.1952 106.056C57.5559 105.056 55.2851 96.8762 49.9403 97.8714L49.9509 97.8874Z" fill="#FFE0CA"/>
<path d="M73.6701 110.873C73.1383 117.743 72.2235 124.561 71.4577 131.405C70.8568 136.796 75.8293 137.52 77.2758 132.336C79.3684 125.022 80.9675 117.576 82.0622 110.048C82.86 104.667 74.0849 105.476 73.6701 110.873V110.873Z" fill="#FFE0CA"/>
<path d="M76.5579 69.6226C76.2165 68.6656 75.5506 67.8587 74.676 67.3424C73.8015 66.826 72.7737 66.6329 71.7715 66.7967C69.607 65.6844 66.5277 66.206 65.6981 69.2448L61.7254 83.7257C61.0872 86.0567 60.4508 88.3895 59.8162 90.724C59.3641 92.3845 59.0929 94.6144 58.3483 96.2748C58.1503 96.291 57.9533 96.3176 57.758 96.3546C55.5191 96.823 53.2801 97.2647 51.0305 97.6958C51.5623 100.447 52.0941 103.215 52.5728 105.982C55.0546 105.51 57.5364 105.017 60.0183 104.503C60.8024 104.329 61.5062 103.898 62.0179 103.278C62.6643 103.233 63.2906 103.035 63.8454 102.7C64.4002 102.365 64.8675 101.903 65.2088 101.352C66.5277 99.3402 66.9266 96.7538 67.5542 94.4654L69.5963 86.9721C70.1459 84.9817 70.6901 82.9913 71.229 81.0009C73.5796 90.7253 74.4067 100.756 73.6807 110.734C76.51 110.543 79.334 110.271 82.1579 110.032C82.9504 96.2322 81.3602 82.6454 76.5579 69.6226Z" fill="#D7D2E9"/>
<path d="M66.0066 53.7367L69.5485 52.8373L72.0321 52.486L73.4255 52.4381L77.0684 53.3056L77.8821 62.9649C77.8821 63.3108 77.8821 63.6514 77.93 63.9974L78.7437 71.9323H63.8527L66.0066 53.7367Z" fill="#5843BD"/>
<path d="M62.9167 55.2534C60.699 57.9729 59.5769 59.2821 57.3592 62.0016C55.8913 63.7685 53.3173 65.8973 52.8865 68.2762C52.493 70.4049 53.9502 71.9323 55.8169 72.6135C58.7578 73.6779 61.97 74.2527 64.9908 75.0563C68.5061 75.993 70.0059 70.538 66.4905 69.6013L61.9275 68.3773C61.5446 68.2762 58.0771 67.6109 58.0718 67.6003L58.359 69.777C58.5292 69.0053 60.0927 67.5577 60.5501 66.9936L63.0443 63.9388L68.0381 57.8293C70.3249 55.0299 66.2033 51.6399 62.9433 55.2322L62.9167 55.2534Z" fill="#FFE0CA"/>
<path d="M72.2289 41.7517H71.7609C69.7453 41.7517 67.7509 43.3483 67.7509 44.8491C67.7523 46.1453 68.2679 47.3879 69.1843 48.304C70.1007 49.2201 71.3431 49.7346 72.6384 49.7346V49.7346C73.3436 49.7346 74.02 49.4543 74.5186 48.9552C75.0173 48.4562 75.2975 47.7794 75.2975 47.0737V44.3967C75.2815 43.1674 73.8935 41.7517 72.2289 41.7517Z" fill="#5843BD"/>
<path d="M76.2867 46.7384C76.2393 46.0315 75.9435 45.3641 75.4517 44.8544C75.3322 44.6713 75.2239 44.4812 75.1273 44.285C74.9921 43.8872 74.7709 43.5242 74.4795 43.2217C74.1881 42.9192 73.8337 42.6848 73.4414 42.535C73.0491 42.3853 72.6287 42.3239 72.21 42.3553C71.7913 42.3867 71.3847 42.5101 71.0192 42.7167C70.6536 42.9233 70.338 43.2081 70.095 43.5506C69.8519 43.8932 69.6873 44.2852 69.6129 44.6987C69.5385 45.1122 69.5561 45.537 69.6644 45.9429C69.7728 46.3488 69.9693 46.7258 70.2399 47.047C70.2399 47.0843 70.2399 47.1216 70.2399 47.1641C70.2675 47.5605 70.373 47.9475 70.5503 48.3031C70.7275 48.6586 70.9731 48.9757 71.2729 49.2362C71.5727 49.4967 71.9209 49.6954 72.2976 49.8211C72.6742 49.9469 73.072 49.997 73.468 49.9688V49.9688C73.8655 49.9431 74.254 49.839 74.6111 49.6625C74.9682 49.486 75.2869 49.2406 75.5489 48.9404C75.8109 48.6401 76.0109 48.291 76.1375 47.9131C76.2642 47.5352 76.3148 47.136 76.2867 46.7384V46.7384Z" fill="#FFE0CA"/>
<path d="M74.0158 45.1684C74.1098 45.1684 74.186 45.0922 74.186 44.9981C74.186 44.9041 74.1098 44.8278 74.0158 44.8278C73.9218 44.8278 73.8456 44.9041 73.8456 44.9981C73.8456 45.0922 73.9218 45.1684 74.0158 45.1684Z" fill="#171717"/>
<path d="M75.1964 45.046C75.2904 45.046 75.3666 44.9698 75.3666 44.8757C75.3666 44.7816 75.2904 44.7054 75.1964 44.7054C75.1024 44.7054 75.0262 44.7816 75.0262 44.8757C75.0262 44.9698 75.1024 45.046 75.1964 45.046Z" fill="#171717"/>
<path d="M74.6221 45.4771C74.545 45.4999 74.4636 45.5035 74.3849 45.4878C74.3061 45.472 74.2324 45.4373 74.17 45.3866C73.9786 45.2482 73.7977 45.5675 73.9892 45.7006C74.0925 45.7768 74.212 45.828 74.3385 45.8502C74.4649 45.8724 74.5947 45.8649 74.7178 45.8283C74.9465 45.7751 74.8507 45.4238 74.6221 45.4771V45.4771Z" fill="#171717"/>
<path d="M70.2984 44.3808H75.574V44.2743C75.574 43.0343 74.3508 42.0285 72.7554 41.7943L71.3673 42.0391C71.0994 42.0383 70.841 42.1386 70.6438 42.3202C70.4466 42.5017 70.3251 42.7511 70.3037 43.0184L70.2984 44.3808Z" fill="#5843BD"/>
<path d="M69.0964 46.3765C68.7531 46.1261 68.5161 45.7558 68.4324 45.339C68.3487 44.9221 68.4244 44.489 68.6444 44.1253L69.5964 42.8906C70.075 42.268 71.0589 42.268 71.7875 42.8906C72.5161 43.5133 73.0851 44.0561 72.6065 44.6735L71.2875 46.3765C70.8089 46.9938 69.825 46.9938 69.0964 46.3765Z" fill="#5843BD"/>
<path d="M70.4685 47.6644C70.9414 47.6644 71.3248 47.2808 71.3248 46.8076C71.3248 46.3343 70.9414 45.9507 70.4685 45.9507C69.9957 45.9507 69.6123 46.3343 69.6123 46.8076C69.6123 47.2808 69.9957 47.6644 70.4685 47.6644Z" fill="#FFE0CA"/>
<path d="M70.7823 46.8288C70.7495 46.7296 70.696 46.6384 70.6254 46.5614C70.5549 46.4843 70.4688 46.4231 70.3728 46.3818C70.1601 46.2913 69.9793 46.6053 70.192 46.6958C70.2461 46.7143 70.2955 46.7443 70.3369 46.7838C70.3782 46.8233 70.4104 46.8714 70.4313 46.9246C70.5217 47.1375 70.8727 47.047 70.7823 46.8288Z" fill="#171717"/>
<path d="M73.4308 52.4115V49.064H72.0321V52.486L69.5644 52.832C70.2525 53.5304 70.9921 54.1762 71.7768 54.7638C71.9941 54.8757 72.22 54.97 72.4522 55.0459C72.9237 55.2062 73.4379 55.1861 73.8955 54.9896C74.3531 54.793 74.7218 54.4339 74.9305 53.9815C75.0989 53.6118 75.2255 53.2244 75.3081 52.8266L73.4308 52.4115Z" fill="#FFE0CA"/>
<path d="M72.9734 46.2647C73.1526 46.2647 73.2978 46.1194 73.2978 45.9401C73.2978 45.7608 73.1526 45.6154 72.9734 45.6154C72.7942 45.6154 72.649 45.7608 72.649 45.9401C72.649 46.1194 72.7942 46.2647 72.9734 46.2647Z" fill="white"/>
<path d="M73.4414 49.9901L72.0481 51.2194L72.0268 49.7186L73.4414 49.9901Z" fill="#171717"/>
<path d="M64.1665 40.2935C62.7518 40.863 62.0392 42.4223 61.3531 43.7741C60.7634 45.0602 59.9676 46.2413 58.9972 47.2706C57.9601 48.3349 56.5242 49.0853 55.067 48.8991C53.0301 48.6436 51.6953 46.7064 50.6263 44.9502C50.5626 46.7833 51.1371 48.5816 52.2517 50.0377C53.3663 51.4938 54.9517 52.5173 56.7369 52.9331C58.2871 53.1925 59.8792 52.9879 61.3136 52.3451C62.748 51.7022 63.9606 50.6496 64.7993 49.3195C65.7832 47.7229 65.7832 45.7591 66.9266 44.253C67.4212 43.6038 69.5059 42.1668 69.3198 41.2302C69.0539 39.9104 65.1184 39.921 64.1665 40.2935Z" fill="#5843BD"/>
<path d="M29.3028 99.4659L22.7959 110.744C22.2966 111.609 22.5929 112.716 23.4578 113.216L23.8585 113.447C24.7233 113.947 25.8292 113.65 26.3285 112.785L32.8353 101.507C33.3346 100.641 33.0383 99.5347 32.1735 99.0351L31.7728 98.8036C30.9079 98.3039 29.8021 98.6004 29.3028 99.4659Z" fill="#3E2F84"/>
<path d="M71.3694 135.59L84.2918 137.129C85.2835 137.248 86.183 136.539 86.3011 135.547L86.3558 135.087C86.4739 134.094 85.7657 133.194 84.7741 133.076L71.8517 131.536C70.8601 131.418 69.9605 132.127 69.8424 133.119L69.7877 133.579C69.6697 134.571 70.3778 135.472 71.3694 135.59Z" fill="#3E2F84"/>
<path d="M66.1821 63.8483L66.1289 63.8004C66.755 63.1039 67.4265 62.4496 68.1392 61.842C67.5273 61.7117 66.9482 61.4582 66.4373 61.0969L66.4799 61.0384C67.0025 61.4067 67.5969 61.6605 68.2243 61.7834H68.2987L68.2402 61.8313C67.5099 62.4569 66.8223 63.1307 66.1821 63.8483V63.8483Z" fill="#171717"/>
<path d="M76.8185 69.6971C76.2087 69.6973 75.6001 69.6439 74.9997 69.5375V69.463C76.0529 69.655 77.13 69.6784 78.1906 69.5322V69.6067C77.7355 69.6653 77.2773 69.6955 76.8185 69.6971Z" fill="#171717"/>
<path d="M77.1057 57.4354C76.8238 56.1901 76.5738 54.9128 76.4356 53.6409H76.51C76.6691 54.9145 76.8927 56.1792 77.1801 57.4301L77.1057 57.4354Z" fill="#171717"/>
<path d="M58.9333 98.361C58.8224 97.5533 58.6208 96.7606 58.3324 95.9981L58.3005 95.9182L60.5341 96.7431V96.8123L58.4547 96.046C58.7315 96.7902 58.9241 97.5632 59.0291 98.3504L58.9333 98.361Z" fill="#171717"/>
<path d="M75.7548 105.003C75.2582 105.003 74.7641 104.933 74.287 104.795V104.721C74.9961 104.929 75.7416 104.981 76.4728 104.875V104.95C76.2348 104.982 75.995 105 75.7548 105.003V105.003Z" fill="#171717"/>
<path d="M62.789 71.6343L62.7252 71.6024L64.1877 68.6434L64.2569 68.6753L62.789 71.6343Z" fill="#171717"/>
<path d="M81.8708 65.5514C81.8618 65.5514 81.853 65.5483 81.8462 65.5424C81.8393 65.5365 81.8348 65.5284 81.8335 65.5194C81.7689 64.8792 81.76 64.2346 81.807 63.5929C81.4809 64.1888 81.1949 64.8057 80.9507 65.4396C80.9434 65.4438 80.9352 65.446 80.9268 65.446C80.9184 65.446 80.9101 65.4438 80.9029 65.4396C80.8972 65.4329 80.8941 65.4244 80.8941 65.4156C80.8941 65.4069 80.8972 65.3984 80.9029 65.3917C81.1696 64.7009 81.486 64.0304 81.8495 63.3853C81.8495 63.3853 81.8495 63.3853 81.892 63.3853C81.8996 63.3884 81.9061 63.3935 81.9108 63.4001C81.9155 63.4067 81.9182 63.4145 81.9186 63.4226C81.8495 64.1145 81.8495 64.8116 81.9186 65.5035C81.9186 65.5035 81.9186 65.546 81.8867 65.546L81.8708 65.5514Z" fill="#171717"/>
<path d="M68.4317 43.7368L67.719 43.2046C67.7156 43.2016 67.7129 43.1979 67.711 43.1938C67.7092 43.1897 67.7082 43.1852 67.7082 43.1807C67.7082 43.1761 67.7092 43.1717 67.711 43.1675C67.7129 43.1634 67.7156 43.1597 67.719 43.1567C67.722 43.1533 67.7257 43.1506 67.7298 43.1487C67.734 43.1469 67.7384 43.1459 67.743 43.1459C67.7475 43.1459 67.752 43.1469 67.7561 43.1487C67.7602 43.1506 67.7639 43.1533 67.7669 43.1567C67.9903 43.1195 68.7827 41.9806 69.0805 41.5601C69.1549 41.4484 69.2134 41.3686 69.2347 41.3419C69.2414 41.3363 69.2499 41.3332 69.2587 41.3332C69.2674 41.3332 69.2759 41.3363 69.2826 41.3419C69.4407 41.4648 69.582 41.6079 69.7027 41.7677C69.7874 41.8755 69.8779 41.9786 69.9739 42.0764C69.9739 42.0764 69.9739 42.1136 69.9739 42.1243L68.4689 43.7581L68.4317 43.7368ZM67.8148 43.2046L68.4263 43.6623L69.8835 42.0657C69.7984 41.9753 69.7134 41.8741 69.6336 41.7783C69.5248 41.6334 69.3999 41.5013 69.2613 41.3845L69.1284 41.5761C68.7705 42.1758 68.3281 42.7207 67.8148 43.194V43.2046Z" fill="#171717"/>
<path d="M72.6065 44.6735L72.665 43.7049L72.9628 44.4074L72.6065 44.6735Z" fill="#E8716A"/>
<path d="M122.959 52.6494C123.809 52.3056 124.761 52.3137 125.605 52.6721C126.449 53.0304 127.116 53.7095 127.46 54.5601L129.786 60.3182L123.376 62.911L121.058 57.1727C120.714 56.3221 120.722 55.3698 121.08 54.5252C121.439 53.6806 122.117 53.013 122.967 52.6692L122.959 52.6494Z" fill="#D7D2E9"/>
<path d="M135.165 68.3188C132.7 67.1912 130.519 65.5254 128.783 63.4439C127.799 62.2731 125.799 62.4274 124.783 63.4439C123.629 64.5987 123.799 66.2698 124.783 67.4406C126.849 69.8896 129.424 71.8568 132.33 73.2043C133.713 73.8429 135.372 73.5981 136.196 72.1878C136.909 70.9691 136.574 68.9627 135.18 68.3188H135.165Z" fill="#FFE0CA"/>
<path d="M121.965 96.3919C123.523 109.867 122.757 122.123 121.582 135.572C121.108 141.011 126.044 142.235 126.868 136.87C128.963 123.3 132.005 109.867 130.447 96.3919C129.825 91.0327 121.337 90.9689 121.938 96.3919H121.965Z" fill="#FFE0CA"/>
<path d="M87.3804 114.22C94.3632 112.123 100.644 111.027 108.6 109.25C111.19 108.67 113.839 107.696 115.514 105.46C117.226 103.129 117.641 99.7447 118.38 97.0146C119.8 91.7352 111.621 89.4787 110.201 94.7581C109.839 96.1045 109.323 97.5308 109.068 98.9038C109.02 99.1699 108.334 100.979 109.185 100.048C108.653 100.623 105.707 101.304 104.962 101.575L101.442 102.853L86.6625 108.212C81.5729 110.059 82.3547 115.987 87.5027 114.119L87.3804 114.22Z" fill="#FFE0CA"/>
<path d="M131.857 95.3594C131.043 88.6166 129.862 81.5863 128.666 74.5028C127.926 70.1495 121.725 69.4736 119.853 72.3421C117.194 70.5806 112.248 71.4906 111.61 75.5991C110.589 82.1983 109.02 90.3409 108.121 96.956C111.654 97.4918 115.218 97.7922 118.79 97.8554C119.242 94.4441 119.768 90.5804 120.258 86.7166C120.46 90.3888 120.678 94.0502 121.087 97.4563C123.863 97.0252 129.102 95.9182 131.857 95.3594Z" fill="#5843BD"/>
<path d="M112.908 52.8479L120.789 51.3365H121.885L125.746 52.816C127.171 53.3482 130.362 75.3011 130.362 75.3011L111.062 75.4342L112.908 52.8479Z" fill="#D7D2E9"/>
<path d="M112.041 53.7154L105.494 61.7462C103.899 63.6887 101.979 65.6844 103.218 68.3347C104.229 70.4954 107.148 71.8525 109.095 72.9754C111.944 74.5842 114.922 75.9548 117.997 77.0733C121.231 78.2761 122.624 73.0978 119.417 71.9057C117.535 71.2061 115.696 70.3976 113.908 69.4842C112.397 68.7019 109.589 67.6216 108.547 66.2911C107.99 65.9186 108.017 65.9292 108.627 66.323L109.611 65.1149L111.573 62.7041L115.828 57.4833C117.992 54.8224 114.232 51.0172 112.041 53.6941V53.7154Z" fill="#FFE0CA"/>
<path d="M83.6725 107.725L81.1627 120.503C80.9701 121.483 81.6083 122.435 82.5882 122.627L83.0422 122.717C84.0221 122.909 84.9726 122.271 85.1652 121.29L87.675 108.512C87.8676 107.531 87.2294 106.58 86.2495 106.387L85.7955 106.298C84.8156 106.105 83.8652 106.744 83.6725 107.725Z" fill="#3E2F84"/>
<path d="M120.785 140.886L133.707 142.425C134.699 142.544 135.598 141.835 135.716 140.843L135.771 140.383C135.889 139.391 135.181 138.49 134.189 138.372L121.267 136.832C120.275 136.714 119.376 137.423 119.258 138.415L119.203 138.875C119.085 139.867 119.793 140.768 120.785 140.886Z" fill="#3E2F84"/>
<path d="M109.685 102.198C109.675 102.202 109.663 102.202 109.653 102.198L109.44 101.831L108.494 100.202C108.491 100.196 108.49 100.19 108.49 100.184C108.49 100.177 108.491 100.171 108.494 100.165C108.498 100.163 108.502 100.162 108.507 100.162C108.512 100.162 108.516 100.163 108.52 100.165L111.009 100.016C111.018 100.017 111.026 100.022 111.032 100.029C111.038 100.036 111.041 100.044 111.041 100.053C111.042 100.058 111.042 100.063 111.04 100.067C111.039 100.072 111.037 100.076 111.034 100.079C111.031 100.083 111.027 100.086 111.023 100.088C111.019 100.09 111.014 100.091 111.009 100.091L108.579 100.234C108.887 100.767 109.19 101.299 109.499 101.831L109.712 102.198C109.717 102.205 109.72 102.213 109.72 102.222C109.72 102.231 109.717 102.239 109.712 102.246L109.685 102.198Z" fill="#171717"/>
<path d="M107.249 67.0734C107.221 67.073 107.194 67.0615 107.175 67.0415C107.169 67.0356 107.164 67.0285 107.161 67.0207C107.158 67.013 107.156 67.0047 107.156 66.9963C107.156 66.9878 107.158 66.9795 107.161 66.9718C107.164 66.964 107.169 66.957 107.175 66.951C107.201 66.9191 107.249 66.8925 107.286 66.9138C107.291 66.9182 107.295 66.9236 107.297 66.9295C107.3 66.9355 107.301 66.9419 107.301 66.9484C107.301 66.9548 107.3 66.9612 107.297 66.9672C107.295 66.9731 107.291 66.9785 107.286 66.9829V66.9829C107.312 66.9756 107.334 66.9608 107.35 66.9404L108.472 66.025C107.94 66.0156 107.412 65.9222 106.909 65.7483C106.904 65.7424 106.901 65.7348 106.901 65.727C106.901 65.7191 106.904 65.7115 106.909 65.7057C106.911 65.6967 106.917 65.6891 106.925 65.6841C106.933 65.6792 106.942 65.6774 106.951 65.6791C107.464 65.8578 108.004 65.9496 108.547 65.9505H108.584C108.59 65.9477 108.596 65.9462 108.603 65.9462C108.609 65.9462 108.616 65.9477 108.621 65.9505C108.625 65.957 108.627 65.9643 108.627 65.9718C108.627 65.9793 108.625 65.9866 108.621 65.9931L107.419 66.9776C107.4 67.0049 107.374 67.0276 107.345 67.0441C107.315 67.0607 107.283 67.0707 107.249 67.0734V67.0734ZM107.249 66.9883C107.253 66.9902 107.258 66.9912 107.263 66.9912C107.267 66.9912 107.272 66.9902 107.276 66.9883H107.249Z" fill="#171717"/>
<path d="M116.131 73.1138C116.125 73.1071 116.122 73.0986 116.122 73.0899C116.122 73.0811 116.125 73.0726 116.131 73.0659C116.428 72.3551 116.827 71.6917 117.317 71.0968C117.324 71.0908 117.334 71.0875 117.343 71.0875C117.353 71.0875 117.362 71.0908 117.37 71.0968C117.373 71.0998 117.376 71.1035 117.378 71.1076C117.38 71.1117 117.381 71.1162 117.381 71.1208C117.381 71.1253 117.38 71.1298 117.378 71.1339C117.376 71.138 117.373 71.1417 117.37 71.1447C116.881 71.7303 116.485 72.3871 116.194 73.0925C116.192 73.0987 116.189 73.1042 116.184 73.1088C116.18 73.1133 116.174 73.1168 116.168 73.1188C116.162 73.1209 116.155 73.1215 116.149 73.1206C116.142 73.1198 116.136 73.1174 116.131 73.1138V73.1138Z" fill="#171717"/>
<path d="M131.288 68.5157C131.282 68.509 131.279 68.5005 131.279 68.4917C131.279 68.483 131.282 68.4745 131.288 68.4678C131.602 67.9174 131.969 67.3987 132.383 66.9191C132.386 66.9157 132.39 66.913 132.394 66.9111C132.398 66.9092 132.402 66.9083 132.407 66.9083C132.412 66.9083 132.416 66.9092 132.42 66.9111C132.424 66.913 132.428 66.9157 132.431 66.9191C132.434 66.9221 132.437 66.9258 132.439 66.9299C132.441 66.934 132.442 66.9385 132.442 66.943C132.442 66.9476 132.441 66.952 132.439 66.9562C132.437 66.9603 132.434 66.964 132.431 66.967C132.029 67.4435 131.673 67.9567 131.367 68.4997C131.369 68.5103 131.367 68.5213 131.361 68.5303C131.355 68.5392 131.346 68.5455 131.335 68.5476C131.325 68.5497 131.314 68.5475 131.305 68.5416C131.296 68.5356 131.29 68.5263 131.288 68.5157V68.5157Z" fill="#171717"/>
<path d="M123.885 69.7024C123.876 69.7025 123.867 69.6994 123.86 69.6935C123.853 69.6876 123.849 69.6794 123.847 69.6705C123.847 69.6608 123.85 69.6514 123.856 69.6436C123.862 69.6359 123.87 69.6304 123.879 69.6279C124.73 69.5063 125.53 69.1487 126.187 68.5956C126.845 68.0426 127.335 67.3161 127.602 66.4986C127.609 66.493 127.617 66.4899 127.626 66.4899C127.635 66.4899 127.643 66.493 127.65 66.4986C127.655 66.5057 127.657 66.5141 127.657 66.5226C127.657 66.5311 127.655 66.5395 127.65 66.5465C127.382 67.378 126.887 68.1178 126.22 68.6822C125.554 69.2465 124.743 69.6129 123.879 69.7397L123.885 69.7024Z" fill="#171717"/>
<path d="M125.874 69.9579C125.865 69.958 125.856 69.9548 125.849 69.9489C125.842 69.9431 125.838 69.9349 125.836 69.926C125.837 69.9165 125.84 69.9074 125.846 69.8998C125.852 69.8923 125.859 69.8865 125.868 69.8834C126.435 69.8665 126.987 69.6954 127.464 69.3885C127.471 69.3824 127.481 69.3791 127.49 69.3791C127.5 69.3791 127.509 69.3824 127.517 69.3885C127.523 69.3952 127.526 69.4037 127.526 69.4124C127.526 69.4212 127.523 69.4296 127.517 69.4364C127.042 69.7533 126.491 69.9371 125.921 69.9686L125.874 69.9579Z" fill="#171717"/>
<path d="M123.284 42.9705L122.938 42.9119C122.938 42.9119 122.89 42.9119 122.874 42.9119C122.869 42.9275 122.869 42.9442 122.874 42.9598C122.874 43.1141 122.933 43.822 123.14 43.822C123.427 43.8273 123.321 43.1141 123.284 42.9705Z" fill="#3C53A4"/>
<path d="M124.72 46.451C124.694 46.0429 124.587 45.644 124.404 45.2783C124.221 44.9125 123.967 44.5874 123.656 44.3222C123.565 43.8994 123.38 43.5027 123.114 43.1621C122.848 42.8215 122.508 42.5459 122.12 42.3562C121.731 42.1664 121.305 42.0674 120.873 42.0668C120.441 42.0661 120.014 42.1637 119.626 42.3522C119.237 42.5407 118.896 42.8153 118.629 43.155C118.361 43.4948 118.175 43.8909 118.083 44.3134C117.991 44.7359 117.997 45.1737 118.099 45.5938C118.201 46.014 118.397 46.4053 118.673 46.7384V46.8555C118.729 47.6564 119.1 48.4023 119.705 48.9293C120.311 49.4562 121.1 49.721 121.901 49.6654V49.6654C122.7 49.6107 123.444 49.242 123.973 48.6398C124.501 48.0375 124.769 47.2507 124.72 46.451V46.451Z" fill="#FFE0CA"/>
<path d="M124.283 45.1418C123.894 44.6583 123.577 44.1204 123.342 43.5452C123.14 43.0396 122.31 43.2578 122.518 43.7741C122.803 44.4849 123.194 45.1487 123.677 45.7432C124.023 46.1689 124.624 45.5622 124.283 45.1365V45.1418Z" fill="#FFE0CA"/>
<path d="M122.284 44.9609C122.378 44.9609 122.454 44.8846 122.454 44.7906C122.454 44.6965 122.378 44.6203 122.284 44.6203C122.19 44.6203 122.114 44.6965 122.114 44.7906C122.114 44.8846 122.19 44.9609 122.284 44.9609Z" fill="#171717"/>
<path d="M123.417 44.8118C123.511 44.8118 123.587 44.7356 123.587 44.6415C123.587 44.5475 123.511 44.4712 123.417 44.4712C123.323 44.4712 123.246 44.5475 123.246 44.6415C123.246 44.7356 123.323 44.8118 123.417 44.8118Z" fill="#171717"/>
<path d="M123.087 45.3972C123.009 45.4163 122.928 45.4176 122.85 45.401C122.772 45.3845 122.698 45.3504 122.635 45.3014C122.443 45.1631 122.263 45.4824 122.449 45.6154C122.553 45.6912 122.673 45.7425 122.8 45.7656C122.928 45.7886 123.058 45.7828 123.183 45.7485C123.229 45.7358 123.269 45.7051 123.293 45.6632C123.317 45.6213 123.323 45.5715 123.31 45.525C123.298 45.4784 123.267 45.4388 123.225 45.4148C123.183 45.3909 123.133 45.3845 123.087 45.3972V45.3972Z" fill="#171717"/>
<path d="M121.385 45.9667C121.564 45.9667 121.709 45.8213 121.709 45.642C121.709 45.4628 121.564 45.3174 121.385 45.3174C121.206 45.3174 121.061 45.4628 121.061 45.642C121.061 45.8213 121.206 45.9667 121.385 45.9667Z" fill="white"/>
<path d="M121.225 52.8692H121.066C120.984 52.8686 120.902 52.8514 120.827 52.8187C120.751 52.7861 120.683 52.7386 120.626 52.679C120.569 52.6195 120.524 52.5492 120.495 52.4721C120.465 52.3951 120.452 52.313 120.454 52.2306V48.7394H121.869V52.2306C121.872 52.3157 121.857 52.4006 121.826 52.4798C121.795 52.559 121.747 52.6308 121.687 52.6908C121.626 52.7508 121.554 52.7976 121.475 52.8283C121.395 52.859 121.311 52.8729 121.225 52.8692V52.8692Z" fill="#FFE0CA"/>
<path d="M121.853 49.6867L120.46 50.9214L120.438 49.4153L121.853 49.6867Z" fill="#171717"/>
<path d="M121.023 44.3754L121.077 43.4069L121.374 44.104L121.023 44.3754Z" fill="#FFE0CA"/>
<path d="M121.555 43.7102C121.054 43.7112 120.558 43.8069 120.093 43.9923C119.8 44.2903 119.396 44.285 119.561 44.6681C119.738 45.0027 119.833 45.3747 119.838 45.7533C119.842 46.1318 119.756 46.5061 119.587 46.8448C119.41 46.5742 119.173 46.3469 118.896 46.1796C118.609 46.0359 119.279 47.8507 119.072 48.1008C118.008 48.0316 116.854 45.5409 116.865 45.0407C116.852 44.444 116.999 43.8548 117.288 43.3331C117.578 42.8114 118.001 42.3759 118.513 42.071C118.71 41.9376 118.925 41.8336 119.151 41.7624C119.393 41.7032 119.642 41.6728 119.891 41.6719C120.506 41.6221 121.124 41.6364 121.736 41.7145C122.369 41.8209 124.422 42.4968 123.119 43.2206C122.427 43.6091 122.667 43.657 121.555 43.7102Z" fill="#5843BD"/>
<path d="M118.896 47.3717C119.369 47.3717 119.752 46.9881 119.752 46.5148C119.752 46.0416 119.369 45.658 118.896 45.658C118.423 45.658 118.04 46.0416 118.04 46.5148C118.04 46.9881 118.423 47.3717 118.896 47.3717Z" fill="#FFE0CA"/>
<path d="M119.199 46.5255C119.165 46.4278 119.11 46.3383 119.04 46.2624C118.97 46.1864 118.884 46.1256 118.79 46.0838C118.577 45.988 118.391 46.302 118.604 46.3978C118.658 46.4156 118.708 46.4448 118.75 46.4833C118.792 46.5218 118.826 46.5689 118.848 46.6213C118.933 46.8395 119.284 46.7437 119.199 46.5255V46.5255Z" fill="#171717"/>
<path d="M119.46 46.6692C119.461 46.7029 119.474 46.7351 119.497 46.7597C119.509 46.7662 119.523 46.7696 119.537 46.7696C119.551 46.7696 119.565 46.7662 119.577 46.7597C119.616 46.7336 119.649 46.6999 119.675 46.6606C119.7 46.6212 119.718 46.5771 119.726 46.5308C119.823 46.1803 119.808 45.8081 119.683 45.4664C119.665 45.3991 119.628 45.3382 119.577 45.2908C119.525 45.2509 119.465 45.222 119.401 45.2057C119.279 45.1737 118.87 45.03 118.768 45.1258C118.667 45.2216 118.811 45.4345 118.88 45.5143C119.194 45.8257 119.398 46.2313 119.46 46.6692V46.6692Z" fill="#3C53A4"/>
<path d="M115.584 53.2251C116.304 53.7931 116.769 54.624 116.877 55.5351C116.984 56.4462 116.726 57.3628 116.158 58.0833L112.316 62.9606L106.887 58.6774L110.729 53.8001C111.297 53.0796 112.127 52.6142 113.037 52.5064C113.948 52.3986 114.864 52.6571 115.584 53.2251Z" fill="#D7D2E9"/>
<path d="M112.541 62.0336C112.535 62.026 112.532 62.0166 112.532 62.007C112.532 61.9973 112.535 61.9879 112.541 61.9804C113.821 60.7898 115.02 59.5151 116.131 58.1645C116.138 58.1585 116.148 58.1552 116.157 58.1552C116.167 58.1552 116.176 58.1585 116.184 58.1645C116.19 58.1721 116.193 58.1815 116.193 58.1911C116.193 58.2008 116.19 58.2102 116.184 58.2178L115.913 58.5743C115.907 58.5782 115.901 58.5803 115.894 58.5803C115.887 58.5803 115.881 58.5782 115.875 58.5743C114.85 59.7903 113.75 60.942 112.583 62.0229L112.541 62.0336Z" fill="#171717"/>
<path d="M127.9 61.0384C127.891 61.0369 127.883 61.0332 127.877 61.0275C127.87 61.0219 127.865 61.0146 127.863 61.0064C127.69 59.8655 127.452 58.7354 127.15 57.6217C127.006 57.0469 126.847 56.3977 126.666 55.6207C126.664 55.6161 126.664 55.6112 126.664 55.6064C126.665 55.6016 126.666 55.597 126.669 55.5929C126.672 55.5888 126.675 55.5853 126.679 55.5828C126.683 55.5802 126.688 55.5786 126.693 55.5781C126.699 55.5725 126.708 55.5694 126.717 55.5694C126.725 55.5694 126.734 55.5725 126.74 55.5781C126.916 56.3551 127.081 57.0044 127.224 57.5738C127.526 58.6912 127.764 59.8248 127.937 60.9692C127.937 60.9788 127.934 60.9883 127.929 60.9961C127.923 61.0038 127.915 61.0093 127.905 61.0118L127.9 61.0384Z" fill="#171717"/>
<path d="M26.588 22.7472H66.6022" stroke="#343434" stroke-width="0.18" stroke-miterlimit="10"/>
<path d="M48.1268 41.9061H14.4678" stroke="#343434" stroke-width="0.18" stroke-miterlimit="10"/>
<path d="M70.4632 138.499H33.6293" stroke="#343434" stroke-width="0.18" stroke-miterlimit="10"/>
<path d="M105.563 126.525H92.6986" stroke="#343434" stroke-width="0.18" stroke-miterlimit="10"/>
</g>
<defs>
<clipPath id="clip0">
<rect x="13" y="18" width="150" height="124.432" fill="white"/>
</clipPath>
</defs>
</svg>
