<svg width="176" height="160" viewBox="0 0 176 160" fill="none" xmlns="http://www.w3.org/2000/svg">
<rect width="176" height="160" rx="10" fill="#FFC8A2"/>
<g clip-path="url(#clip0)">
<path d="M96.0836 90.7612L99.6812 103.152C101.458 109.259 111.015 106.661 109.233 100.516L105.641 88.1314C103.865 82.0186 94.3007 84.6166 96.0899 90.7612H96.0836Z" fill="#FFE0CA"/>
<path d="M92.4541 53.8614L91.4671 53.5111C87.0098 52.5687 81.9158 56.3574 80.9734 60.8975L77.605 74.9061L96.7076 78.0452L96.9368 77.6759C96.3383 73.5434 95.7588 71.0219 96.6248 66.9403L97.6882 62.0946C97.8872 61.2102 97.9096 60.2952 97.754 59.4021C97.5984 58.5091 97.268 57.6555 96.7817 56.8905C96.2953 56.1255 95.6627 55.4641 94.92 54.9443C94.1774 54.4245 93.3394 54.0564 92.4541 53.8614V53.8614Z" fill="#2B2C2B"/>
<path d="M93.4984 75.3773L92.6578 74.1993C97.4017 74.3457 101.642 75.9567 103.056 79.8218L107.239 91.2069L93.2309 96.301L89.0729 84.9158C88.4007 83.0638 88.4888 81.0209 89.318 79.2337C90.1472 77.4464 91.6501 76.0599 93.4984 75.3773V75.3773Z" fill="#FDEE91"/>
<path d="M78.2927 73.3078L88.0541 73.0786L91.9893 73.467L92.7152 73.658C101.808 76.3706 103.54 89.1566 104.775 100.363L107.106 121.51H61.7498L68.353 97.1861C71.766 88.0423 70.9446 74.4858 78.2927 73.3078Z" fill="#FDEE91"/>
<path d="M91.257 119.441C81.0689 111.8 71.7214 101.853 58.9227 98.5805C52.5933 96.9632 45.7419 98.1348 42.0805 103.878C38.4192 109.622 39.3616 115.232 44.5129 119.549C55.9745 129.183 70.7599 133.003 85.5198 133.303C89.5569 133.385 92.8489 133.424 95.4914 130.023C97.5035 127.476 99.3883 124.929 101.897 122.796C106.655 118.729 112.416 116.011 118.58 114.926C119.917 114.684 122.452 115.085 123.553 114.55L123.948 114.652C124.75 114.977 124.769 114.499 124.018 113.207C123.897 113.207 122.961 114.245 122.744 114.34C119.21 115.977 115.931 117.588 112.117 118.606C103.839 120.816 95.3258 121.064 86.8252 120.555C78.3245 120.045 78.3627 133.252 86.8252 133.761C98.2867 134.455 110.245 133.666 121.089 129.603C129.475 126.464 141.764 118.938 135.69 108.151C130.169 98.3449 116.199 101.007 107.552 104.375C97.9462 108.117 89.7418 114.752 84.0744 123.363L89.8052 120.09C81.8139 120.211 73.9246 119.536 66.309 116.951C62.7999 115.752 59.4627 114.099 56.382 112.035C55.0923 111.145 53.851 110.186 52.6634 109.163C52.4978 111.373 52.6634 111.978 53.2046 110.991C53.593 110.532 53.5166 110.532 52.9626 110.991C51.9948 111.53 52.3705 111.613 54.0897 111.239C55.0891 111.173 56.0879 111.377 56.9806 111.831C58.3933 112.312 59.7683 112.897 61.094 113.582C64.0626 115.08 66.8961 116.831 69.5628 118.817C74.7332 122.637 79.477 126.973 84.6093 130.838C87.481 132.997 91.9638 131.271 93.6448 128.47C95.657 125.108 94.1096 121.567 91.2761 119.434L91.257 119.441Z" fill="#3E2F84"/>
<path d="M79.9415 139.464L80.6176 139.807C82.0359 140.524 83.7674 139.956 84.4851 138.538L89.6255 128.379C90.3432 126.961 89.7752 125.23 88.3569 124.512L87.6808 124.17C86.2625 123.452 84.531 124.02 83.8133 125.438L78.6729 135.597C77.9552 137.015 78.5232 138.747 79.9415 139.464Z" fill="#FFE0CA"/>
<path d="M90.3655 70.124C86.8889 69.6337 84.4947 66.2207 85.0168 62.483C85.5389 58.7516 88.78 56.1155 92.2567 56.6185C95.7334 57.1088 97.2043 62.0946 96.9432 64.0558L96.9814 64.1067C96.4593 67.819 93.8677 70.5889 90.3655 70.124Z" fill="#FFE0CA"/>
<path d="M92.5623 63.1006C92.7769 63.1006 92.9508 62.9267 92.9508 62.7122C92.9508 62.4977 92.7769 62.3238 92.5623 62.3238C92.3478 62.3238 92.1739 62.4977 92.1739 62.7122C92.1739 62.9267 92.3478 63.1006 92.5623 63.1006Z" fill="#171717"/>
<path d="M95.3641 63.6037C95.5786 63.6037 95.7525 63.4298 95.7525 63.2153C95.7525 63.0007 95.5786 62.8268 95.3641 62.8268C95.1496 62.8268 94.9756 63.0007 94.9756 63.2153C94.9756 63.4298 95.1496 63.6037 95.3641 63.6037Z" fill="#171717"/>
<path d="M94.0523 64.2468C93.8715 64.2639 93.6892 64.2362 93.5215 64.1663C93.3538 64.0963 93.2059 63.9862 93.0908 63.8456C92.7406 63.4445 92.1675 64.0239 92.5114 64.4251C92.7013 64.6435 92.9393 64.8147 93.2068 64.9252C93.4742 65.0357 93.7637 65.0825 94.0523 65.0618C94.5745 65.0236 94.5808 64.2022 94.0523 64.2404V64.2468Z" fill="#171717"/>
<path d="M86.2266 60.2607L97.4462 61.9991L97.6181 61.1012C98.2167 58.2613 96.3446 54.9247 93.6066 54.3517L93.2882 54.2434C92.312 53.9195 91.297 53.7268 90.27 53.6703L89.1175 53.8104C87.7039 53.9696 86.8697 54.5045 86.5705 55.7207L86.2266 60.2607Z" fill="#2B2C2B"/>
<path d="M82.6608 62.1455C81.3873 60.5282 82.2597 58.9617 83.5523 57.8347L85.6663 55.6888C86.9398 54.5936 88.6781 54.3708 89.9262 55.9817C91.1997 57.5991 90.7412 58.5288 89.4486 59.6494L87.2582 63.0815C85.9656 64.1831 83.9089 63.7565 82.6608 62.1455Z" fill="#2B2C2B"/>
<path d="M85.3543 64.094C86.2897 64.094 87.048 63.3357 87.048 62.4002C87.048 61.4648 86.2897 60.7065 85.3543 60.7065C84.4188 60.7065 83.6605 61.4648 83.6605 62.4002C83.6605 63.3357 84.4188 64.094 85.3543 64.094Z" fill="#FFE0CA"/>
<path d="M85.8318 62.4193C85.7948 62.1877 85.7085 61.9667 85.5789 61.7712C85.4493 61.5757 85.2794 61.4102 85.0805 61.2859C84.6411 60.993 84.2336 61.6998 84.6666 61.9927C84.773 62.0639 84.8619 62.1581 84.927 62.2683C84.992 62.3785 85.0314 62.5019 85.0423 62.6295C85.072 62.7335 85.1413 62.8218 85.2354 62.8753C85.3294 62.9289 85.4406 62.9435 85.5453 62.916C85.6484 62.8849 85.7357 62.8153 85.789 62.7217C85.8423 62.6281 85.8577 62.5176 85.8318 62.413V62.4193Z" fill="#171717"/>
<path d="M90.3082 64.0558C90.7126 64.0558 91.0405 63.7279 91.0405 63.3235C91.0405 62.9191 90.7126 62.5912 90.3082 62.5912C89.9038 62.5912 89.576 62.9191 89.576 63.3235C89.576 63.7279 89.9038 64.0558 90.3082 64.0558Z" fill="white"/>
<path d="M96.3892 65.1064C96.7128 65.1064 96.975 64.8441 96.975 64.5206C96.975 64.1971 96.7128 63.9348 96.3892 63.9348C96.0657 63.9348 95.8034 64.1971 95.8034 64.5206C95.8034 64.8441 96.0657 65.1064 96.3892 65.1064Z" fill="white"/>
<path d="M88.7067 76.1167C88.2956 76.057 87.9251 75.8364 87.6766 75.5034C87.4282 75.1704 87.3222 74.7524 87.3819 74.3413L88.3473 67.6997C88.3844 67.444 88.5217 67.2136 88.7288 67.059C88.9358 66.9045 89.1958 66.8386 89.4515 66.8757L90.6677 67.0525C90.918 67.0956 91.1416 67.2348 91.2908 67.4404C91.4401 67.646 91.5031 67.9017 91.4664 68.1531L90.5002 74.801C90.4696 75.0055 90.3989 75.2019 90.292 75.379C90.1851 75.556 90.0443 75.7101 89.8775 75.8324C89.7108 75.9548 89.5215 76.0429 89.3206 76.0917C89.1196 76.1405 88.911 76.149 88.7067 76.1167V76.1167Z" fill="#FFE0CA"/>
<path d="M91.1997 70.175L87.5575 72.964L88.1242 69.3536L91.1997 70.175Z" fill="#171717"/>
<path d="M64.628 82.4261C61.597 90.827 58.4133 99.1621 55.0767 107.431C53.281 111.889 58.8972 114.595 62.3548 113.028C64.9018 111.876 67.4042 110.736 69.9067 109.533C75.6374 106.782 70.6326 98.2367 64.9018 100.981C62.4057 102.178 59.8778 103.318 57.3563 104.471L64.628 110.068C67.9731 101.786 71.1568 93.4504 74.1793 85.0623C76.3506 79.0513 66.7802 76.4661 64.628 82.4261V82.4261Z" fill="#FFE0CA"/>
<path d="M59.6549 87.6029L70.4288 97.1542L77.6305 84.9095C79.9546 80.9552 84.7303 75.6256 80.776 73.2951C80.776 73.2951 81.3236 73.1486 79.5025 73.2951C68.3976 74.2311 63.7047 81.5729 59.5403 87.5138L59.6549 87.6029Z" fill="#FDEE91"/>
<path d="M76.8154 88.1442L78.4455 107.17L74.7969 95.4414L74.4085 93.0344L76.8154 88.1442Z" fill="#5757C4"/>
<path d="M74.9879 91.0478C75.0519 91.0101 75.1046 90.956 75.1404 90.891C75.1762 90.826 75.194 90.7526 75.1917 90.6784L70.1932 96.804C69.1489 96.371 68.9197 95.9507 67.6462 95.0147" stroke="#343434" stroke-width="0.17" stroke-miterlimit="10"/>
<path d="M104.928 85.578L106.253 103.751L78.0062 106.546L76.8154 88.1442L104.928 85.578Z" fill="#5843BD"/>
<path d="M75.4974 108.571L103.298 106.234L106.253 103.751L78.038 106.559L75.4974 108.571Z" fill="#5757C4"/>
<path d="M104.928 85.578L106.253 103.751L78.0062 106.546L76.8154 88.1442L104.928 85.578Z" stroke="#161616" stroke-width="0.13" stroke-miterlimit="10"/>
<path d="M78.0062 106.546L75.4974 108.571L74.4085 93.0344L76.8154 88.1442L71.4603 84.3364L68.8942 89.6978L74.4849 93.0344" fill="#5843BD"/>
<path d="M74.4849 93.0344L68.8942 89.6978L71.4603 84.3364L76.8154 88.1442L74.4085 93.0344L75.4974 108.571L78.0062 106.546" stroke="#161616" stroke-width="0.13" stroke-miterlimit="10"/>
<path d="M104.928 85.5781L108.271 79.9109L79.3815 82.4771L76.8154 88.1442L104.928 85.5781Z" fill="#5843BD"/>
<path d="M104.928 85.5781L108.271 79.9109L79.3815 82.4771L76.8154 88.1442L104.928 85.5781Z" stroke="#0C0B0B" stroke-width="0.13" stroke-miterlimit="10"/>
<path d="M104.928 85.578L111.531 83.4067L109.201 88.5326L105.24 89.4049" fill="#5843BD"/>
<path d="M104.928 85.578L111.531 83.4067L109.201 88.5326L105.24 89.4049" stroke="#141414" stroke-width="0.13" stroke-miterlimit="10"/>
<path d="M86.0292 79.6753C86.5906 80.2112 87.2892 80.5814 88.0478 80.7451C89.3213 80.9488 90.5502 80.2102 91.4799 79.3251C93.059 77.8224 94.3962 76.2942 94.7337 74.1419C92.8794 73.5141 90.9545 73.1184 89.0029 72.964C87.6402 72.843 83.0301 72.964 83.0429 73.0913C83.253 75.3518 84.8895 78.7138 86.0292 79.6753Z" fill="#FFE0CA"/>
<path d="M87.2709 63.0815C88.2388 61.547 89.9835 58.8535 89.9007 57.0515C89.4104 56.9496 87.7485 57.7328 87.2582 57.6373C87.172 58.9071 86.9825 60.1678 86.6915 61.4069C86.3944 62.6543 85.7977 63.8105 84.9531 64.7753C84.2166 65.4938 83.4199 66.1478 82.5717 66.7301C82.5717 66.7301 83.1448 66.9912 83.2466 66.9848C83.4504 66.9848 83.5141 66.8639 83.6796 66.762C84.1512 66.4369 84.5962 66.075 85.0104 65.6795C85.879 64.9208 86.6396 64.0467 87.2709 63.0815V63.0815Z" fill="#2B2C2B"/>
<path d="M69.913 109.533C72.6511 108.208 75.3445 106.776 78.0253 105.317C78.5868 104.989 79.078 104.553 79.471 104.034C79.864 103.516 80.1511 102.925 80.3158 102.296C80.4804 101.666 80.5195 101.01 80.4308 100.366C80.342 99.7214 80.1272 99.1007 79.7986 98.5392C79.47 97.9777 79.034 97.4864 78.5155 97.0934C77.997 96.7004 77.4062 96.4133 76.7768 96.2487C76.1474 96.084 75.4917 96.0449 74.8471 96.1336C74.2026 96.2224 73.5819 96.4372 73.0204 96.7658C70.346 98.224 67.6525 99.6503 64.9081 100.981C62.5012 102.146 61.8581 105.578 63.1316 107.756C64.5707 110.214 67.4934 110.704 69.913 109.533V109.533Z" fill="#FFE0CA"/>
<path d="M105.851 97.307C105.558 97.2389 105.271 97.1474 104.992 97.0332L106.176 97.5299C105.847 97.3778 105.535 97.1899 105.246 96.9696L106.253 97.7464C105.971 97.5195 105.715 97.2634 105.488 96.9823L106.259 97.982C106.082 97.7375 105.925 97.4799 105.788 97.2115C105.135 96.0994 104.076 95.2843 102.833 94.9383C101.544 94.5973 100.172 94.7757 99.0126 95.435C97.901 96.0914 97.0864 97.1524 96.7394 98.3959C96.4338 99.6874 96.6104 101.046 97.2361 102.216C97.8452 103.372 98.6935 104.384 99.7245 105.185C100.755 105.987 101.946 106.559 103.215 106.865C104.506 107.189 105.871 107.011 107.036 106.368C108.141 105.704 108.953 104.646 109.309 103.407C109.483 102.78 109.531 102.125 109.452 101.479C109.372 100.833 109.166 100.209 108.845 99.6428C108.523 99.0768 108.094 98.5796 107.58 98.1799C107.066 97.7802 106.479 97.4857 105.851 97.3134V97.307Z" fill="#FFE0CA"/>
<path d="M66.7038 101.179C67.3274 100.315 68.0864 99.5583 68.9515 98.9371L68.5886 101.038" stroke="#343434" stroke-width="0.17" stroke-miterlimit="10"/>
<path d="M105.762 97.0905C106.89 98.1116 107.594 99.5177 107.736 101.032" stroke="#343434" stroke-width="0.17" stroke-miterlimit="10"/>
<path d="M122.171 116.333L122.095 116.41" stroke="#343434" stroke-width="0.17" stroke-miterlimit="10"/>
<path d="M123.158 113.385C122.505 113.973 121.761 114.453 120.955 114.805C121.983 114.659 123.03 114.715 124.037 114.971" stroke="#191919" stroke-width="0.17" stroke-miterlimit="10"/>
<path d="M53.4848 109.017C54.2404 109.866 55.0215 110.698 55.828 111.513L52.8353 112.608" stroke="#191919" stroke-width="0.17" stroke-miterlimit="10"/>
<path d="M66.1053 116.664L79.2224 121.332" stroke="#191919" stroke-width="0.17" stroke-miterlimit="10"/>
<path d="M105.705 120.428L93.059 122.79" stroke="#191919" stroke-width="0.17" stroke-miterlimit="10"/>
<path d="M89.6205 61.1586L90.391 59.1655V60.9675L89.6205 61.1586Z" fill="#FFE0CA"/>
<path d="M107.462 77.2493L112.334 73.0276" stroke="#2B2C2B" stroke-width="0.43" stroke-miterlimit="10"/>
<path d="M102.387 72.4036L103.241 66.1762C103.241 66.1061 103.241 66.0233 103.33 65.9915C103.419 65.9597 103.489 66.0424 103.444 66.0934" stroke="#2B2C2B" stroke-width="0.43" stroke-miterlimit="10"/>
<path d="M105.915 71.0473L108.379 66.8639" stroke="#2B2C2B" stroke-width="0.43" stroke-miterlimit="10"/>
<path d="M72.2181 62.4193L71.0337 55.415" stroke="#2B2C2B" stroke-width="0.43" stroke-miterlimit="10"/>
<path d="M65.9397 71.735C64.3478 71.6756 62.7559 71.6926 61.164 71.786" stroke="#2B2C2B" stroke-width="0.43" stroke-miterlimit="10"/>
<path d="M70.5752 68.01C69.3527 67.1886 68.1556 66.3226 66.9903 65.4248" stroke="#2B2C2B" stroke-width="0.43" stroke-miterlimit="10"/>
<path d="M24.1368 94.9574H56.2929" stroke="#343434" stroke-width="0.18" stroke-miterlimit="10"/>
<path d="M142.573 96.0654H114.218" stroke="#343434" stroke-width="0.18" stroke-miterlimit="10"/>
<path d="M133.27 22.3612H96.1472" stroke="#343434" stroke-width="0.17" stroke-miterlimit="10"/>
<path d="M121.465 28.8879H87.0544" stroke="#343434" stroke-width="0.17" stroke-miterlimit="10"/>
<path d="M47.5312 16L47.5375 92.7925" stroke="#343434" stroke-width="0.18" stroke-miterlimit="10"/>
<path d="M47.8495 34.1475H23.7611" stroke="#343434" stroke-width="0.18" stroke-miterlimit="10"/>
<path d="M45.6272 72.0343H23.9521" stroke="#343434" stroke-width="0.18" stroke-miterlimit="10"/>
<path d="M68.0664 49.1112H57.2034" stroke="#343434" stroke-width="0.18" stroke-miterlimit="10"/>
<path d="M146.393 101L162.962 117.562" stroke="#343434" stroke-width="0.18" stroke-miterlimit="10"/>
<path d="M33.2488 118.046L13.0382 138.263" stroke="#343434" stroke-width="0.17" stroke-miterlimit="10"/>
<path d="M55.9299 137.302H63.6983" stroke="#343434" stroke-width="0.17" stroke-miterlimit="10"/>
<path d="M146.387 27.4552H109.774V64.0685H146.387V27.4552Z" stroke="#343434" stroke-width="0.18" stroke-miterlimit="10"/>
<path d="M148.304 65.9788H105.96V69.0034H148.304V65.9788Z" stroke="#343434" stroke-width="0.12" stroke-miterlimit="10"/>
<path d="M108.589 54.7464C115.865 48.7221 121.645 41.0938 125.476 32.4601" stroke="#343434" stroke-width="0.18" stroke-miterlimit="10"/>
<path d="M134.792 30.0086C136.025 38.0372 138.965 45.7083 143.413 52.5051" stroke="#343434" stroke-width="0.18" stroke-miterlimit="10"/>
<path d="M140.593 38.1463C142.158 42.0228 144.501 45.5377 147.476 48.4744" stroke="#343434" stroke-width="0.18" stroke-miterlimit="10"/>
<path d="M117.287 33.3706L111.557 41.4701" stroke="#343434" stroke-width="0.18" stroke-miterlimit="10"/>
<path d="M66.1625 60.8911C66.5142 60.8911 66.7993 60.606 66.7993 60.2544C66.7993 59.9027 66.5142 59.6176 66.1625 59.6176C65.8109 59.6176 65.5258 59.9027 65.5258 60.2544C65.5258 60.606 65.8109 60.8911 66.1625 60.8911Z" stroke="#2B2C2B" stroke-width="0.43" stroke-miterlimit="10"/>
<path d="M79.0759 69.2008L87.5893 72.7284L86.1502 77.1283C85.7921 78.2715 84.9973 79.2271 83.9385 79.7875C82.8797 80.3479 81.6425 80.4678 80.4958 80.1211V80.1211C79.3453 79.7685 78.3817 78.9735 77.817 77.9109C77.2522 76.8483 77.1325 75.6049 77.484 74.454L79.0759 69.2008Z" fill="#2B2C2B"/>
</g>
<defs>
<clipPath id="clip0">
<rect x="13" y="16" width="150" height="127.185" fill="white"/>
</clipPath>
</defs>
</svg>
