<svg width="347" height="339" viewBox="0 0 347 339" fill="none" xmlns="http://www.w3.org/2000/svg">
<path d="M346.13 265.89H0V266.58H346.13V265.89Z" fill="#343434"/>
<path d="M208.26 118.15C196.26 128.15 184.647 138.583 173.42 149.45C165.09 157.53 177.83 170.26 186.15 162.18C197.383 151.3 209 140.867 221 130.88C229.91 123.46 217.12 110.79 208.27 118.15H208.26Z" fill="#FFE0CA"/>
<path d="M290.73 166.75H189.28V11.43H290.73V166.75ZM189.5 166.53H290.5V11.65H189.5V166.53Z" fill="#343434"/>
<path d="M195.354 241.552L188.463 238.736L162.182 303.055L169.074 305.871L195.354 241.552Z" fill="#001412"/>
<path d="M239.185 305.39L246.049 302.598L219.985 238.537L213.121 241.33L239.185 305.39Z" fill="#001412"/>
<path d="M259.58 187.99H129.16C119.136 187.99 111.01 196.116 111.01 206.14V229.12C111.01 239.144 119.136 247.27 129.16 247.27H259.58C269.604 247.27 277.73 239.144 277.73 229.12V206.14C277.73 196.116 269.604 187.99 259.58 187.99Z" fill="#FFB17A"/>
<path d="M291.482 82.1372L269.731 74.7201C260.244 71.4848 249.93 76.5532 246.695 86.0407L209.054 196.419C205.819 205.907 210.887 216.221 220.375 219.456L242.125 226.873C251.612 230.108 261.926 225.04 265.162 215.552L302.802 105.174C306.037 95.6864 300.969 85.3725 291.482 82.1372Z" fill="#FFB17A"/>
<path d="M233.64 183.24C231.64 175.73 224.47 172.99 217.5 174.07L159.39 183.07C141.64 185.8 124.68 186.19 112.03 200.47C86.93 228.79 63.92 259.3 40.03 288.66C43.41 296.28 54.59 300.06 61.76 303.35C83.2933 276.97 104.823 250.593 126.35 224.22C131.11 218.4 134.35 213.67 141.88 212.22C151.16 210.38 160.66 209.31 170.01 207.87L224.49 199.48C231.54 198.3 235.3 189.52 233.64 183.24Z" fill="#3E2F84"/>
<path d="M198.15 136.69C203.047 125.165 211.676 115.621 222.65 109.59V109.59L224.16 110.02L237.32 114.25C247.69 119.44 254.52 123.83 252.71 133.48L237.89 187.07L182.89 176.34L198.15 136.69Z" fill="#FEF5C0"/>
<path d="M224 78.81H226.6C233.36 77.95 240.29 83.5 241.16 90.42L244.04 113.22L215.21 113.92L215.59 91.47C215.106 90.08 214.95 88.5969 215.134 87.1366C215.318 85.6763 215.838 84.2784 216.652 83.0524C217.467 81.8263 218.554 80.8054 219.829 80.0694C221.103 79.3334 222.531 78.9024 224 78.81V78.81Z" fill="#5843BD"/>
<path d="M223.51 187.16C206.548 179.459 188.579 174.204 170.14 171.55C164.19 170.73 158.6 172.11 155.32 177.55C133.79 213.35 111.42 248.55 86.67 282.27C86.55 282.43 86.46 282.59 86.35 282.76C93.64 287.76 102.35 291.11 110.99 293.24C133.31 262.68 153.71 230.86 173.32 198.51C186.023 200.843 198.414 204.632 210.25 209.8C216.78 212.7 224.25 211.65 228.25 205.09C231.55 199.56 230 190 223.51 187.16Z" fill="#3E2F84"/>
<path d="M233.22 95.13C233.936 94.0329 234.42 92.8014 234.644 91.5108C234.868 90.2201 234.827 88.8973 234.523 87.6232C234.218 86.3491 233.658 85.1503 232.875 84.1002C232.092 83.05 231.103 82.1704 229.969 81.5152C228.834 80.8599 227.578 80.4427 226.277 80.289C224.976 80.1353 223.658 80.2484 222.402 80.6213C221.146 80.9942 219.98 81.6192 218.974 82.458C217.967 83.2968 217.143 84.3319 216.55 85.5C216.378 85.6701 216.257 85.8848 216.2 86.12C216.11 86.43 216.01 86.74 215.91 87.04C215.81 87.34 215.76 87.48 215.71 87.71C215.422 88.538 215.088 89.3493 214.71 90.14C213.339 92.031 212.664 94.3381 212.8 96.67C212.952 99.3828 214.175 101.924 216.2 103.735C218.226 105.547 220.887 106.48 223.6 106.33C224.943 106.255 226.258 105.915 227.469 105.332C228.681 104.748 229.766 103.932 230.662 102.929C231.558 101.926 232.248 100.756 232.692 99.4869C233.136 98.2174 233.326 96.8728 233.25 95.53C233.26 95.39 233.23 95.26 233.22 95.13Z" fill="#FFE0CA"/>
<path d="M219.73 90.39C220.05 90.39 220.31 90.1303 220.31 89.81C220.31 89.4897 220.05 89.23 219.73 89.23C219.41 89.23 219.15 89.4897 219.15 89.81C219.15 90.1303 219.41 90.39 219.73 90.39Z" fill="#171717"/>
<path d="M215.7 90.49C216.02 90.49 216.28 90.2303 216.28 89.91C216.28 89.5897 216.02 89.33 215.7 89.33C215.38 89.33 215.12 89.5897 215.12 89.91C215.12 90.2303 215.38 90.49 215.7 90.49Z" fill="#171717"/>
<path d="M217.8 92.92C218.232 92.973 218.671 92.9276 219.083 92.7874C219.495 92.6471 219.87 92.4156 220.18 92.11C220.76 91.57 219.89 90.7 219.31 91.24C219.112 91.4288 218.871 91.5673 218.609 91.6439C218.346 91.7205 218.069 91.7329 217.8 91.68C217.01 91.58 217.02 92.82 217.8 92.92V92.92Z" fill="#171717"/>
<path d="M232.41 97.28C234.006 97.28 235.3 95.9861 235.3 94.39C235.3 92.7939 234.006 91.5 232.41 91.5C230.814 91.5 229.52 92.7939 229.52 94.39C229.52 95.9861 230.814 97.28 232.41 97.28Z" fill="#FFE0CA"/>
<path d="M232.56 94.84C232.599 94.6513 232.679 94.4735 232.795 94.3196C232.911 94.1657 233.059 94.0394 233.23 93.95C233.359 93.8618 233.45 93.7279 233.485 93.5752C233.52 93.4226 233.496 93.2625 233.417 93.127C233.339 92.9915 233.212 92.8908 233.062 92.845C232.912 92.7992 232.751 92.8117 232.61 92.88C232.303 93.0527 232.035 93.2864 231.821 93.5667C231.608 93.847 231.454 94.1681 231.37 94.51C231.342 94.6622 231.373 94.8193 231.455 94.9504C231.537 95.0814 231.665 95.177 231.814 95.2184C231.963 95.2597 232.123 95.2438 232.261 95.1738C232.399 95.1038 232.505 94.9847 232.56 94.84V94.84Z" fill="#171717"/>
<path d="M223.63 93.64C224.238 93.64 224.73 93.1475 224.73 92.54C224.73 91.9325 224.238 91.44 223.63 91.44C223.022 91.44 222.53 91.9325 222.53 92.54C222.53 93.1475 223.022 93.64 223.63 93.64Z" fill="white"/>
<path d="M223.195 102.513L226.624 102.606C226.794 102.611 226.955 102.683 227.071 102.806C227.188 102.929 227.251 103.094 227.246 103.263L226.925 115.059C226.915 115.441 226.753 115.803 226.476 116.065C226.198 116.328 225.828 116.47 225.446 116.459L223.617 116.41C223.235 116.399 222.873 116.237 222.611 115.96C222.348 115.683 222.206 115.313 222.217 114.931L222.538 103.135C222.543 102.966 222.615 102.805 222.738 102.688C222.861 102.571 223.026 102.508 223.195 102.513V102.513Z" fill="#FFE0CA"/>
<path d="M196.94 151.72C191 151.38 185.09 151.72 179.15 151.78C167.58 151.91 167.55 169.91 179.15 169.78C185.09 169.72 191 169.38 196.94 169.73C201.8 170.01 205.94 165.39 205.94 160.73C205.94 155.62 201.81 152.02 196.94 151.73V151.72Z" fill="#FFE0CA"/>
<path d="M222.71 106.25L227.32 110.55L227.53 105.46L222.71 106.25Z" fill="#5843BD"/>
<path d="M263.83 170.99H197.71C185.123 170.99 174.92 181.193 174.92 193.78V222.63C174.92 235.217 185.123 245.42 197.71 245.42H263.83C276.417 245.42 286.62 235.217 286.62 222.63V193.78C286.62 181.193 276.417 170.99 263.83 170.99Z" fill="#FFB17A"/>
<path d="M93.07 291.87C87.07 294.683 81.0967 297.553 75.15 300.48C67.57 304.22 74.22 315.54 81.78 311.82C87.72 308.887 93.69 306.017 99.69 303.21C102.9 301.7 103.69 297.09 102.05 294.21C100.12 290.92 96.29 290.34 93.05 291.85L93.07 291.87Z" fill="#FDEE91"/>
<path d="M40.75 303.27C34.08 304.6 27.63 306.75 20.97 308.07C12.69 309.71 16.19 322.37 24.46 320.73C31.12 319.41 37.57 317.26 44.24 315.93C52.52 314.29 49.01 301.63 40.75 303.27Z" fill="#FDEE91"/>
<path d="M155.57 129.61C155.55 129.163 155.567 128.715 155.62 128.27C155.62 127.95 155.62 127.61 155.68 127.2V127.12H155.76C159.65 126.88 169.83 128.06 173.44 128.58C166.914 126.986 160.303 125.757 153.64 124.9H153.54C153.456 125.085 153.415 125.287 153.42 125.49C153.42 126.16 153.36 126.81 153.34 127.49C153.32 128.17 153.29 128.71 153.26 129.33H153.07C153.07 128.71 153.13 128.1 153.15 127.5L153.24 125.5C153.23 125.261 153.282 125.023 153.39 124.81C153.413 124.781 153.444 124.76 153.48 124.75H153.6C155.35 124.75 172.6 127.75 174.28 128.75L174.69 128.99L174.22 128.92C171.71 128.49 160.16 127.1 155.86 127.33C155.86 127.71 155.86 128.02 155.8 128.33C155.764 128.766 155.764 129.204 155.8 129.64L155.57 129.61Z" fill="#343434"/>
<path d="M173.86 128.85V128.65C176.155 128.21 178.409 127.581 180.6 126.77C181.53 126.45 182.49 126.12 183.44 125.83C187.981 124.562 192.606 123.616 197.28 123H197.35L198.57 125.75C198.623 125.87 198.683 125.93 198.75 125.93L198.69 125.74C198.717 125.723 198.748 125.714 198.78 125.714C198.812 125.714 198.843 125.723 198.87 125.74C198.893 125.772 198.905 125.811 198.905 125.85C198.905 125.889 198.893 125.928 198.87 125.96C198.857 125.997 198.832 126.028 198.8 126.05C198.768 126.072 198.729 126.082 198.69 126.08V126.08C198.46 126.08 198.37 125.86 198.33 125.79L197.18 123.18C192.546 123.795 187.961 124.737 183.46 126C182.46 126.29 181.55 126.61 180.63 126.93C178.43 127.755 176.166 128.397 173.86 128.85V128.85Z" fill="#343434"/>
<path d="M173.51 128.38L173.39 128.21C179.698 123.67 187.021 120.741 194.72 119.68H194.78V119.74C195.859 121.417 196.679 123.248 197.21 125.17L197.02 125.23C196.497 123.345 195.695 121.548 194.64 119.9C187.012 120.968 179.76 123.879 173.51 128.38V128.38Z" fill="#343434"/>
<path d="M148.57 84.9H4.3V85.12H148.57V84.9Z" fill="#343434"/>
<path d="M148.57 112.65H4.3V112.87H148.57V112.65Z" fill="#343434"/>
<path d="M67.66 84.3H59.28V20.41H67.66V84.3ZM59.5 84.08H67.44V20.63H59.5V84.08Z" fill="#343434"/>
<path d="M81.13 84.71H68.26V41.22H81.13V84.71ZM68.48 84.49H80.91V41.49H68.48V84.49Z" fill="#343434"/>
<path d="M58.89 84.3H47.24V31H58.89V84.3ZM47.46 84.08H58.66V31.24H47.46V84.08Z" fill="#343434"/>
<path d="M32.9 86.74H32.8L26.85 84.89V84.78L40.61 40.6H40.72L46.72 42.45V42.55L32.9 86.74ZM27.12 84.74L32.76 86.49L46.39 42.63L40.76 40.88L27.12 84.74Z" fill="#343434"/>
<path d="M79.6 50.2H73.75V50.42H79.6V50.2Z" fill="#343434"/>
<path d="M55.51 49.8H50.46V50.02H55.51V49.8Z" fill="#343434"/>
<path d="M64.19 38.07H63.97V63.79H64.19V38.07Z" fill="#343434"/>
<path d="M298.89 11.65H179.48V0H298.89V11.65ZM179.7 11.43H298.7V0.22H179.7V11.43Z" fill="#343434"/>
<path d="M237.41 84.61L233.67 80.86C232.976 80.2313 232.105 79.8323 231.176 79.7177C230.247 79.6032 229.306 79.7786 228.48 80.22C228.48 79.95 228.48 79.67 228.48 79.4C226.874 78.765 225.086 78.765 223.48 79.4C221.89 80.0294 220.385 80.8559 219 81.86C218.903 81.9209 218.809 81.9877 218.72 82.06C218.693 82.0636 218.667 82.0636 218.64 82.06C218.454 82.5006 218.162 82.8887 217.79 83.19C216.67 84.35 215.28 86.56 215.61 88.19C216.87 87.98 218.21 86.28 219.09 84.65C220.23 86.2745 221.703 87.6379 223.41 88.65L226.02 90.45C226.331 90.6831 226.689 90.8437 227.07 90.92L229.46 93.29C231.33 95.17 234.62 94.76 236.81 92.36C239 89.96 239.28 86.49 237.41 84.61Z" fill="#5843BD"/>
<path d="M226.91 109.38L243.58 109.03L244.16 117.03C244.16 119.317 243.252 121.511 241.636 123.129C240.02 124.747 237.827 125.657 235.54 125.66V125.66C233.251 125.66 231.056 124.751 229.438 123.132C227.819 121.514 226.91 119.319 226.91 117.03V109.38Z" fill="#5843BD"/>
<path d="M151.31 129.54L167.06 158.75L187.04 160.67L174.29 128.89L151.31 129.54Z" fill="#5843BD"/>
<path d="M200.88 124.55L216.63 157.21L187.04 160.67L174.36 128.78L200.88 124.55Z" fill="#5843BD"/>
<path d="M233.44 133.87C230.035 145.58 225.791 157.03 220.74 168.13L230.9 164C221.54 162.51 211.9 160.8 204.55 154.33C195.87 146.72 183.09 159.4 191.82 167.06C201.72 175.73 213.38 179.33 226.12 181.36C229.74 181.94 234.56 181.06 236.28 177.22C242.038 164.735 246.89 151.851 250.8 138.67C254 127.51 236.63 122.75 233.44 133.88V133.87Z" fill="#FFE0CA"/>
<path d="M187.46 160.36C182.95 150.36 178.46 139.59 174.58 129.36L174.77 129.29C178.69 139.54 183.14 150.29 187.65 160.29L187.46 160.36Z" fill="#343434"/>
<path d="M129.25 338.78H84.9V339H129.25V338.78Z" fill="#343434"/>
<path d="M94.7 326.53H43.21V326.75H94.7V326.53Z" fill="#343434"/>
</svg>
