<svg width="176" height="160" viewBox="0 0 176 160" fill="none" xmlns="http://www.w3.org/2000/svg">
<rect width="176" height="160" rx="10" fill="#FFE0CA"/>
<g clip-path="url(#clip0)">
<path d="M93.784 28.9193L100.257 29.5577C117.348 29.2577 133.129 44.9561 133.455 62.4739L134.457 120.109L62.3424 114.025L69.3649 58.1583C65.7962 42.8046 77.6067 28.6639 93.784 28.9193Z" fill="#2B2C2B"/>
<path d="M49.2679 63.7827C46.6195 70.6652 45.5505 78.0546 46.1397 85.4055C46.5674 90.6979 50.5191 95.8434 56.3542 95.5817C61.4997 95.3519 66.99 91.1129 66.5304 85.4055C66.4091 83.8925 66.3325 82.3858 66.358 80.8664C66.358 80.4195 66.6581 76.7998 66.4985 77.9234C66.9686 74.93 67.7848 72.0014 68.9308 69.1964C70.846 64.2168 66.8049 57.8072 61.8189 56.6708C55.952 55.3493 51.3363 58.4584 49.2679 63.7827Z" fill="#FFC8A2"/>
<path d="M58.2311 149.597C60.4996 132.028 63.3532 114.549 66.7921 97.1586C67.1832 95.1616 67.2285 93.1124 66.9262 91.1001C57.3501 88.8848 51.6427 86.0439 42.6667 83.5669C41.2367 85.6098 34.8207 121.776 31.5457 144.892" fill="#BCB4E5"/>
<path d="M58.3652 149.616H58.0907C60.3506 132.124 63.2298 114.472 66.6581 97.165C67.0426 95.2149 67.0923 93.2136 66.8049 91.2469C62.1253 90.1175 57.5148 88.7192 52.9962 87.059C49.8361 85.9609 46.561 84.8182 42.7306 83.7584C41.4027 86.2482 35.4528 118.347 31.6925 144.943L31.418 144.905C34.7058 121.859 41.0899 85.5715 42.5582 83.4903L42.6157 83.4073H42.7051C46.5866 84.4798 49.8935 85.6353 53.0856 86.7462C57.625 88.4122 62.2569 89.8148 66.9581 90.9469H67.0475V91.0363C67.3551 93.0632 67.3098 95.128 66.9134 97.1394C63.498 114.491 60.6187 132.13 58.3652 149.616Z" fill="#2B2C2B"/>
<path d="M83.1106 64.2257C83.9755 56.2512 79.1355 49.1856 72.3003 48.4443C65.465 47.703 59.2228 53.5666 58.3579 61.5411C57.493 69.5155 62.3329 76.5811 69.1682 77.3224C76.0035 78.0638 82.2457 72.2002 83.1106 64.2257Z" fill="#FFFBE6"/>
<path d="M93.4967 81.1154C106.884 81.1154 117.737 70.2627 117.737 56.8751C117.737 43.4876 106.884 32.6348 93.4967 32.6348C80.1091 32.6348 69.2564 43.4876 69.2564 56.8751C69.2564 70.2627 80.1091 81.1154 93.4967 81.1154Z" fill="#E8716A"/>
<path d="M88.0064 46.0988H87.9298C85.0024 45.9443 82.0703 46.2919 79.2602 47.1267C80.6456 42.9004 73.821 41.132 72.1803 45.3966C71.0206 48.4388 69.5891 51.3703 67.903 54.1555C63.7304 58.5764 61.2681 64.3383 60.9571 70.4093V70.4093C60.7806 73.7792 61.2696 77.1507 62.3961 80.3316C63.5227 83.5124 65.2647 86.4402 67.5227 88.9479C69.7807 91.4555 72.5106 93.4938 75.5563 94.9464C78.6021 96.399 81.9042 97.2375 85.274 97.4139H85.357C92.1626 97.7686 98.8304 95.4052 103.894 90.8437C108.957 86.2822 112 79.8963 112.355 73.0907C112.531 69.7191 112.04 66.3461 110.911 63.1644C109.782 59.9826 108.037 57.0546 105.776 54.5478C103.514 52.041 100.781 50.0045 97.7319 48.5547C94.6829 47.105 91.3781 46.2705 88.0064 46.0988V46.0988Z" fill="#FFC8A2"/>
<path d="M110.51 77.2977C114.519 77.2977 117.769 74.0479 117.769 70.0391C117.769 66.0302 114.519 62.7804 110.51 62.7804C106.501 62.7804 103.252 66.0302 103.252 70.0391C103.252 74.0479 106.501 77.2977 110.51 77.2977Z" fill="#E8716A"/>
<path d="M110.81 71.035C110.933 70.6311 111.152 70.2631 111.449 69.9624C111.571 69.8273 111.703 69.7014 111.844 69.5858C111.96 69.5033 112.079 69.4266 112.202 69.356C112.24 69.356 112.63 69.1581 112.457 69.2283C112.848 69.1081 113.178 68.8424 113.379 68.486C113.58 68.1296 113.636 67.7097 113.536 67.3131C113.482 67.1162 113.389 66.9321 113.263 66.7713C113.137 66.6105 112.981 66.4761 112.803 66.3759C112.625 66.2756 112.429 66.2115 112.226 66.1872C112.023 66.1629 111.818 66.1788 111.621 66.2342C110.729 66.5643 109.924 67.0927 109.266 67.7794C108.608 68.4662 108.114 69.2934 107.823 70.1987C107.735 70.5876 107.8 70.9954 108.005 71.3373C108.211 71.6793 108.539 71.9291 108.924 72.0351C109.308 72.141 109.718 72.0949 110.07 71.9063C110.421 71.7177 110.686 71.4011 110.81 71.0222V71.035Z" fill="#171717"/>
<path d="M90.0429 69.19C91.9468 69.19 93.4903 67.6465 93.4903 65.7426C93.4903 63.8386 91.9468 62.2952 90.0429 62.2952C88.1389 62.2952 86.5955 63.8386 86.5955 65.7426C86.5955 67.6465 88.1389 69.19 90.0429 69.19Z" fill="#FFB17A"/>
<path d="M90.4617 87.6296L91.4827 87.6574C92.9129 87.6963 94.2691 88.3018 95.2528 89.3407C96.2366 90.3795 96.7674 91.7666 96.7284 93.1968L96.0871 116.745C96.0444 118.313 95.3809 119.799 94.2425 120.877C93.104 121.955 91.584 122.536 90.0167 122.494V122.494C89.2407 122.473 88.4764 122.299 87.7675 121.982C87.0586 121.666 86.419 121.213 85.8852 120.649C85.3514 120.085 84.9339 119.422 84.6564 118.697C84.379 117.972 84.2471 117.199 84.2682 116.423L84.91 92.8558C84.949 91.4256 85.5545 90.0694 86.5933 89.0857C87.6321 88.1019 89.0192 87.5711 90.4494 87.6101L90.4617 87.6296Z" fill="#FFE0CA"/>
<path d="M83.9716 97.3118L96.4589 108.114L96.9824 95.3455L93.8925 96.2904C91.9357 96.8966 89.9016 97.217 87.8532 97.2416L83.9716 97.3118Z" fill="#2B2C2B"/>
<path d="M69.4543 56.4474C70.4679 57.17 71.6706 57.5805 72.9145 57.6284C73.7891 57.6731 73.7827 56.3133 72.9145 56.2686C71.911 56.2171 70.945 55.8707 70.1374 55.2727C69.4288 54.762 68.7457 55.9111 69.4543 56.4474V56.4474Z" fill="#171717"/>
<path d="M81.0158 59.3138C81.7288 59.8054 82.537 60.1418 83.3882 60.3013C84.2394 60.4607 85.1145 60.4397 85.9571 60.2395C86.8062 60.048 86.4423 58.7393 85.5932 58.9627C84.9262 59.1159 84.2341 59.1245 83.5635 58.9879C82.8929 58.8514 82.2593 58.5729 81.7053 58.1711C80.9839 57.6731 80.3072 58.8478 81.0158 59.3458V59.3138Z" fill="#171717"/>
<path d="M73.9231 64.7147C74.5963 64.9865 75.3306 65.0706 76.0478 64.9582C76.765 64.8457 77.4384 64.541 77.9962 64.0763C78.6856 63.5401 77.7153 62.5825 77.0386 63.1187C76.6475 63.4086 76.1856 63.5877 75.7014 63.6371C75.2171 63.6866 74.7285 63.6045 74.287 63.3996C73.4826 63.0613 73.1315 64.3764 73.9231 64.6764V64.7147Z" fill="#171717"/>
<path d="M125.615 47.0117L117.316 36.644C113.677 32.0986 106.846 31.6453 101.1 35.1948C98.8529 32.3922 95.2459 29.4492 91.9454 29.3215C86.8381 29.1747 80.0327 29.3662 76.2022 32.7497C73.6486 34.9969 71.095 38.4443 70.0927 41.6874C69.9714 42.0896 68.4201 47.3054 68.8159 47.4905C76.9236 51.321 88.4469 54.1427 98.0485 56.524L103.501 66.4576C107.663 71.6478 115.988 71.501 122.097 66.1256C128.194 60.7758 129.771 52.202 125.615 47.0117Z" fill="#2B2C2B"/>
<path d="M120.75 61.5036C121.05 52.5148 119.039 43.5835 113.44 36.3631C108.276 29.7045 98.6997 25.3442 89.9854 26.8572C87.3807 27.3105 84.3866 28.1787 83.3843 29.9982C89.3343 30.2153 98.4954 34.4671 102.351 39.3445C103.86 40.6948 105.202 42.2208 106.348 43.8899C109.636 48.7163 110.817 54.6535 110.631 60.4055C110.408 66.9109 120.527 68.06 120.75 61.5036Z" fill="#3E2F84"/>
<path d="M126.614 72.4105C127.479 64.4361 122.639 57.3705 115.804 56.6292C108.968 55.8878 102.726 61.7514 101.861 69.7259C100.996 77.7004 105.836 84.766 112.671 85.5073C119.507 86.2486 125.749 80.385 126.614 72.4105Z" fill="#FFFBE6"/>
<path d="M116.135 82.7114C115.941 82.7241 115.747 82.7241 115.554 82.7114C113.492 82.488 111.678 81.0963 110.446 78.7916C109.238 76.2217 108.761 73.3686 109.067 70.5454C109.374 67.7221 110.452 65.0378 112.183 62.7868C113.875 60.7949 115.937 59.8246 117.999 60.048C120.061 60.2714 121.874 61.6632 123.106 63.9678C124.318 66.5379 124.798 69.3927 124.491 72.2178C124.185 75.0429 123.105 77.7286 121.369 79.9791C119.844 81.7474 118.005 82.7114 116.135 82.7114ZM109.112 70.5179H109.182C108.822 73.3169 109.297 76.16 110.549 78.6895C111.749 80.9558 113.517 82.322 115.534 82.5199C117.552 82.7178 119.576 81.7857 121.235 79.8322C122.951 77.6021 124.02 74.9425 124.324 72.1452C124.628 69.3479 124.156 66.5209 122.959 63.9742C121.759 61.7142 119.984 60.3417 117.967 60.1438C115.949 59.9459 113.926 60.8843 112.266 62.8315C110.511 65.0288 109.439 67.6922 109.182 70.4923L109.112 70.5179Z" fill="#343434"/>
<path d="M82.6438 54.3981C81.9632 54.3224 81.2743 54.3822 80.6169 54.5739C79.9595 54.7657 79.3465 55.0856 78.8133 55.5153C78.4951 55.7749 78.208 56.0706 77.9579 56.3963C77.0671 55.8861 76.0712 55.5869 75.0467 55.5217C74.8296 54.4442 74.2752 53.4637 73.4637 52.7223C72.6522 51.9808 71.6259 51.5169 70.5332 51.3976C69.8571 51.3242 69.1731 51.3848 68.5203 51.5758C67.8676 51.7667 67.2588 52.0844 66.7289 52.5106C66.1989 52.9369 65.7581 53.4633 65.4315 54.0599C65.105 54.6565 64.8992 55.3116 64.8258 55.9877C64.7525 56.6639 64.813 57.3479 65.004 58.0006C65.195 58.6533 65.5126 59.2621 65.9389 59.7921C66.3651 60.322 66.8916 60.7629 67.4882 61.0894C68.0848 61.4159 68.7398 61.6217 69.416 61.6951C69.6053 61.7048 69.7949 61.7048 69.9842 61.6951C71.2532 61.6854 72.4745 61.2099 73.416 60.359C74.3575 59.5081 74.9538 58.341 75.0914 57.0794C75.1083 56.8669 75.1083 56.6535 75.0914 56.441C75.933 56.518 76.7477 56.7772 77.4791 57.2007C77.0944 57.9523 76.8981 58.7861 76.9072 59.6303C76.9163 60.4746 77.1304 61.304 77.5312 62.0471C77.9319 62.7902 78.5073 63.4248 79.2078 63.8962C79.9082 64.3675 80.7128 64.6616 81.5521 64.7531C81.7436 64.7531 81.9351 64.7531 82.1203 64.7531C83.4025 64.7483 84.6381 64.272 85.5917 63.4149C86.5453 62.5578 87.1503 61.3799 87.2914 60.1055C87.4271 58.7333 87.0147 57.3631 86.144 56.2938C85.2733 55.2246 84.015 54.5431 82.6438 54.3981V54.3981ZM74.1721 57.0028C74.05 58.1139 73.4921 59.1312 72.6208 59.8314C71.7494 60.5316 70.6359 60.8575 69.5245 60.7375C68.6944 60.6479 67.9095 60.314 67.2692 59.7781C66.6289 59.2423 66.162 58.5285 65.9275 57.7272C65.693 56.9258 65.7015 56.0729 65.9519 55.2764C66.2023 54.4799 66.6833 53.7756 67.3342 53.2526C67.985 52.7296 68.7764 52.4114 69.6082 52.3383C70.4399 52.2653 71.2746 52.4406 72.0067 52.8421C72.7388 53.2436 73.3353 53.8532 73.7207 54.5939C74.1062 55.3345 74.2633 56.1729 74.1721 57.0028V57.0028ZM86.3018 60.0352C86.1625 61.1416 85.594 62.149 84.7189 62.8402C83.8439 63.5314 82.7323 63.8512 81.6237 63.7306C80.5151 63.6101 79.4982 63.0588 78.7922 62.1956C78.0862 61.3324 77.7476 60.2264 77.8493 59.1159C77.9685 58.0787 78.4651 57.1216 79.2445 56.427C80.0239 55.7324 81.0316 55.3488 82.0756 55.3493C82.2288 55.3493 82.382 55.3493 82.5416 55.3493C83.6624 55.4714 84.6889 56.0336 85.3952 56.9124C86.1016 57.7911 86.43 58.9144 86.3082 60.0352H86.3018Z" fill="#FFFBE6"/>
<path d="M129.381 102.362C130.243 92.7153 128.52 83.6116 124.721 74.7569C122.614 69.8475 115.017 68.3728 110.791 71.1052C105.684 74.393 104.886 79.7748 107.139 85.0352C109.329 90.1425 109.616 95.7605 109.023 102.362C108.55 107.68 114.047 112.774 119.237 112.576C125.155 112.308 128.909 108.107 129.413 102.362H129.381Z" fill="#FFC8A2"/>
<path d="M138.364 151.583C136.874 135.112 135.044 118.681 132.874 102.291C132.646 100.525 132.218 98.7898 131.597 97.1203C123.231 99.7869 114.521 101.219 105.741 101.372C105.677 102.411 105.711 103.455 105.843 104.487C108.15 121.861 110.065 139.281 111.589 156.747" fill="#BCB4E5"/>
<path d="M111.442 156.76C109.91 139.383 107.976 121.801 105.697 104.5C105.562 103.461 105.527 102.411 105.594 101.366V101.238H105.722C114.489 101.087 123.187 99.655 131.539 96.9862L131.661 96.9479L131.705 97.0692C132.328 98.7491 132.757 100.495 132.982 102.272C135.146 118.596 136.991 135.182 138.479 151.57H138.204C136.723 135.182 134.878 118.603 132.714 102.285C132.487 100.569 132.069 98.8841 131.469 97.2607C123.168 99.8999 114.527 101.321 105.818 101.481C105.766 102.469 105.802 103.461 105.926 104.443C108.218 121.744 110.159 139.325 111.672 156.709L111.442 156.76Z" fill="#2B2C2B"/>
<path d="M129.931 30.2408L129.848 30.1642L138.421 20.3391L138.504 20.4093L129.931 30.2408Z" fill="#343434"/>
<path d="M131.622 37.3718L131.578 37.2633L148.01 29.5705L148.061 29.6726L131.622 37.3718Z" fill="#343434"/>
<path d="M122.493 27.202L122.385 27.1637L126.419 16.0235L126.528 16.0618L122.493 27.202Z" fill="#343434"/>
<path d="M38.632 78.1915L21.3823 60.9418L21.4653 60.8588L38.7086 78.1085L38.632 78.1915Z" fill="#343434"/>
<path d="M33.5631 79.3662H17.7625V79.4811H33.5631V79.3662Z" fill="#343434"/>
<path d="M21.0886 98.046L21.012 97.963L31.9287 87.0462L32.0054 87.1292L21.0886 98.046Z" fill="#343434"/>
<path d="M95.1693 58.6754L98.9998 51.3338L98.3613 60.5907L95.1693 58.6754Z" fill="#FFE0CA"/>
<path d="M64.4236 84.9012C62.442 80.9639 61.3171 76.6515 61.1231 72.248H61.238C61.4316 76.6358 62.5521 80.9329 64.5258 84.8565L64.4236 84.9012Z" fill="#343434"/>
<path d="M41.8624 44.356C42.0313 44.3396 42.1881 44.2609 42.3022 44.1352C42.4163 44.0095 42.4795 43.8458 42.4795 43.6761C42.4795 43.5063 42.4163 43.3427 42.3022 43.217C42.1881 43.0913 42.0313 43.0126 41.8624 42.9962C41.6934 43.0126 41.5366 43.0913 41.4225 43.217C41.3084 43.3427 41.2452 43.5063 41.2452 43.6761C41.2452 43.8458 41.3084 44.0095 41.4225 44.1352C41.5366 44.2609 41.6934 44.3396 41.8624 44.356V44.356Z" fill="#2B2C2B"/>
<path d="M139.539 61.2738C139.708 61.2574 139.864 61.1787 139.978 61.053C140.092 60.9273 140.156 60.7636 140.156 60.5938C140.156 60.4241 140.092 60.2604 139.978 60.1347C139.864 60.009 139.708 59.9303 139.539 59.9139C139.37 59.9303 139.213 60.009 139.099 60.1347C138.985 60.2604 138.921 60.4241 138.921 60.5938C138.921 60.7636 138.985 60.9273 139.099 61.053C139.213 61.1787 139.37 61.2574 139.539 61.2738V61.2738Z" fill="#2B2C2B"/>
<path d="M51.8151 42.7344L51.5534 42.6642C51.7581 41.8464 51.6543 40.9819 51.2618 40.2358C50.8693 39.4897 50.2157 38.9143 49.4258 38.6197C48.636 38.3251 47.7652 38.3319 46.98 38.6387C46.1948 38.9455 45.5502 39.5309 45.1693 40.2829L44.8693 40.9213L44.9203 40.2191C44.9223 39.5503 44.7336 38.8948 44.3763 38.3294C44.019 37.7641 43.5079 37.3123 42.903 37.0271C42.3293 36.6752 41.6672 36.4944 40.9944 36.5057C40.3216 36.517 39.6659 36.72 39.1044 37.0909L38.9129 36.8355C39.5169 36.4337 40.2234 36.2134 40.9487 36.201C41.6741 36.1885 42.3877 36.3844 43.0051 36.7653C43.5788 37.0469 44.0749 37.4646 44.45 37.9821C44.825 38.4996 45.0676 39.101 45.1565 39.7339C45.6386 38.9965 46.3683 38.4555 47.214 38.2084C48.0597 37.9614 48.9658 38.0245 49.7691 38.3865C50.5723 38.7485 51.2199 39.3854 51.595 40.1826C51.9701 40.9798 52.0482 41.8848 51.8151 42.7344V42.7344Z" fill="#2B2C2B"/>
<path d="M139.979 50.4719C139.862 49.9107 139.893 49.3288 140.07 48.7833C140.246 48.2379 140.561 47.7477 140.984 47.3612C141.408 46.9746 141.924 46.705 142.484 46.5788C143.043 46.4526 143.625 46.4742 144.173 46.6415C144.479 46.776 144.773 46.934 145.054 47.1139C145.564 47.5233 146.209 47.7261 146.861 47.6821C147.736 47.4969 148.068 46.584 148.419 45.6136C148.54 45.2944 148.655 44.9752 148.795 44.6688C149.312 43.6849 150.193 42.9418 151.249 42.5983C152.306 42.2548 153.455 42.338 154.452 42.8302L154.318 43.0728C153.389 42.6128 152.316 42.5349 151.331 42.8559C150.345 43.1769 149.524 43.8713 149.044 44.7901C148.91 45.071 148.789 45.4285 148.674 45.7094C148.31 46.7053 147.94 47.7331 146.919 47.9502C146.194 47.9998 145.477 47.7716 144.914 47.3118C144.643 47.1422 144.362 46.9908 144.071 46.8585C143.572 46.7141 143.045 46.7 142.539 46.8175C142.033 46.9351 141.565 47.1804 141.181 47.53C140.797 47.8796 140.509 48.3219 140.344 48.8145C140.18 49.3072 140.144 49.8339 140.241 50.3442L139.979 50.4719Z" fill="#2B2C2B"/>
<path d="M150.736 120.965C150.66 120.592 150.502 120.24 150.273 119.936C150.044 119.632 149.75 119.383 149.412 119.207C149.074 119.032 148.701 118.934 148.32 118.921C147.94 118.908 147.561 118.98 147.212 119.133L146.97 119.254L147.021 118.986C147.231 117.83 147.385 116.719 146.867 115.832C146.705 115.579 146.482 115.371 146.219 115.226C145.956 115.081 145.661 115.004 145.361 115.002V115.002C145.171 114.995 144.982 115.04 144.815 115.131C144.647 115.222 144.508 115.356 144.41 115.519L144.173 115.391C144.296 115.19 144.47 115.024 144.677 114.912C144.885 114.8 145.119 114.745 145.354 114.753H145.386C145.733 114.755 146.074 114.845 146.378 115.013C146.681 115.181 146.938 115.424 147.123 115.717C147.646 116.624 147.551 117.696 147.359 118.807C147.719 118.684 148.101 118.638 148.48 118.671C148.86 118.704 149.228 118.816 149.562 118.998C149.944 119.185 150.277 119.459 150.533 119.799C150.789 120.138 150.962 120.533 151.036 120.952L150.736 120.965Z" fill="#2B2C2B"/>
<path d="M72.5122 26.538H22.4356V26.653H72.5122V26.538Z" fill="#343434"/>
<path d="M36.1167 33.7201H16.0069V33.835H36.1167V33.7201Z" fill="#343434"/>
<path d="M163.006 98.3588H146.612V98.4737H163.006V98.3588Z" fill="#343434"/>
<path d="M154.867 103.147H141.856V103.262H154.867V103.147Z" fill="#343434"/>
<path d="M27.262 30.0812C26.0508 30.0812 24.8669 29.722 23.86 29.049C22.853 28.3759 22.0683 27.4194 21.6051 26.3003C21.1419 25.1812 21.021 23.9499 21.2578 22.7621C21.4945 21.5743 22.0783 20.4835 22.9351 19.6275C23.792 18.7715 24.8835 18.1889 26.0715 17.9534C27.2595 17.7179 28.4907 17.8401 29.6093 18.3044C30.7279 18.7688 31.6837 19.5545 32.3556 20.5622C33.0276 21.5698 33.3856 22.7541 33.3843 23.9653C33.3809 25.5874 32.7346 27.142 31.587 28.2884C30.4394 29.4348 28.8841 30.0795 27.262 30.0812V30.0812ZM27.262 18.1111C26.1039 18.1098 24.9714 18.4521 24.0078 19.0946C23.0443 19.7371 22.293 20.6509 21.8489 21.7205C21.4048 22.7901 21.288 23.9674 21.5131 25.1034C21.7383 26.2395 22.2954 27.2832 23.1138 28.1025C23.9323 28.9219 24.9754 29.4801 26.1112 29.7065C27.2469 29.9329 28.4243 29.8173 29.4944 29.3744C30.5645 28.9315 31.4792 28.1812 32.1227 27.2183C32.7663 26.2555 33.1098 25.1234 33.1098 23.9653C33.1081 22.4143 32.4917 20.9272 31.3955 19.8298C30.2994 18.7325 28.813 18.1145 27.262 18.1111V18.1111Z" fill="#2B2C2B"/>
<path d="M151.751 72.6948C151.203 72.6948 150.667 72.5322 150.211 72.2275C149.756 71.9227 149.4 71.4896 149.191 70.983C148.981 70.4763 148.927 69.9189 149.034 69.3813C149.142 68.8436 149.406 68.35 149.794 67.9627C150.182 67.5755 150.677 67.3121 151.215 67.2059C151.753 67.0997 152.31 67.1555 152.816 67.3662C153.322 67.5769 153.754 67.933 154.058 68.3895C154.362 68.846 154.523 69.3823 154.522 69.9305C154.52 70.6643 154.228 71.3674 153.708 71.8856C153.189 72.4038 152.485 72.6948 151.751 72.6948V72.6948ZM151.751 67.428C151.256 67.4267 150.772 67.5724 150.359 67.8466C149.947 68.1209 149.625 68.5113 149.435 68.9684C149.244 69.4256 149.194 69.929 149.29 70.4148C149.385 70.9007 149.623 71.3472 149.973 71.6979C150.323 72.0485 150.769 72.2875 151.254 72.3845C151.74 72.4816 152.243 72.4324 152.701 72.2432C153.159 72.054 153.55 71.7332 153.825 71.3215C154.101 70.9099 154.247 70.4258 154.247 69.9305C154.247 69.2679 153.985 68.6324 153.517 68.1632C153.049 67.6941 152.414 67.4297 151.751 67.428V67.428Z" fill="#2B2C2B"/>
<path d="M150.794 9.49259C150.151 9.49259 149.522 9.30185 148.988 8.94451C148.453 8.58717 148.037 8.07929 147.791 7.48515C147.545 6.89101 147.481 6.23732 147.607 5.60681C147.733 4.9763 148.043 4.3973 148.498 3.94311C148.953 3.48892 149.533 3.17994 150.164 3.05528C150.794 2.93062 151.448 2.99588 152.042 3.2428C152.635 3.48973 153.142 3.90722 153.499 4.44243C153.855 4.97765 154.044 5.60653 154.043 6.24949C154.041 7.1102 153.698 7.93508 153.089 8.5431C152.48 9.15112 151.654 9.4926 150.794 9.49259V9.49259ZM150.794 3.26813C150.204 3.26687 149.627 3.44065 149.136 3.76747C148.644 4.0943 148.261 4.55948 148.035 5.10414C147.808 5.6488 147.748 6.24845 147.862 6.8272C147.977 7.40595 148.26 7.93777 148.677 8.35536C149.094 8.77295 149.625 9.05753 150.203 9.17309C150.782 9.28864 151.382 9.22997 151.927 9.00451C152.472 8.77905 152.938 8.39692 153.266 7.9065C153.594 7.41609 153.769 6.83942 153.769 6.24949C153.769 5.45989 153.455 4.70253 152.898 4.1436C152.34 3.58467 151.583 3.26982 150.794 3.26813V3.26813Z" fill="#2B2C2B"/>
<path d="M16.9645 138.77C16.1807 138.769 15.4148 138.535 14.7637 138.099C14.1126 137.662 13.6054 137.043 13.3063 136.318C13.0072 135.594 12.9296 134.797 13.0833 134.028C13.237 133.259 13.6151 132.554 14.1698 132C14.7245 131.446 15.4309 131.069 16.1998 130.917C16.9687 130.764 17.7655 130.843 18.4895 131.143C19.2136 131.444 19.8323 131.952 20.2677 132.604C20.703 133.255 20.9354 134.022 20.9354 134.805C20.9337 135.857 20.5146 136.866 19.7701 137.609C19.0256 138.352 18.0165 138.77 16.9645 138.77V138.77ZM16.9645 131.109C16.2334 131.109 15.5188 131.326 14.9109 131.732C14.303 132.138 13.8293 132.715 13.5495 133.391C13.2697 134.066 13.1965 134.81 13.3392 135.527C13.4818 136.244 13.8338 136.902 14.3508 137.419C14.8677 137.936 15.5263 138.288 16.2434 138.431C16.9604 138.573 17.7036 138.5 18.379 138.22C19.0545 137.941 19.6318 137.467 20.0379 136.859C20.4441 136.251 20.6609 135.536 20.6609 134.805C20.6609 133.825 20.2714 132.885 19.5782 132.192C18.885 131.498 17.9448 131.109 16.9645 131.109V131.109Z" fill="#2B2C2B"/>
</g>
<defs>
<clipPath id="clip0">
<rect x="13" y="3" width="150" height="153.76" fill="white"/>
</clipPath>
</defs>
</svg>
